<?xml version="1.0" encoding="us-ascii" standalone="no"?><svg xmlns="http://www.w3.org/2000/svg" xmlns:xlink="http://www.w3.org/1999/xlink" contentStyleType="text/css" height="1382px" preserveAspectRatio="none" style="width:5915px;height:1382px;background:#FFFFFF;" version="1.1" viewBox="0 0 5915 1382" width="5915px" zoomAndPan="magnify"><defs/><g><!--cluster combat--><g id="cluster_combat"><path d="M8.5,6 L60.5,6 A3.75,3.75 0 0 1 63,8.5 L70,29.6094 L5288.5,29.6094 A2.5,2.5 0 0 1 5291,32.1094 L5291,1372.5 A2.5,2.5 0 0 1 5288.5,1375 L8.5,1375 A2.5,2.5 0 0 1 6,1372.5 L6,8.5 A2.5,2.5 0 0 1 8.5,6 " fill="none" style="stroke:#000000;stroke-width:1.5;"/><line style="stroke:#000000;stroke-width:1.5;" x1="6" x2="70" y1="29.6094" y2="29.6094"/><text fill="#000000" font-family="sans-serif" font-size="14" font-weight="bold" lengthAdjust="spacing" textLength="51" x="10" y="22.5332">combat</text></g><!--cluster heroes--><g id="cluster_heroes"><path d="M32.5,50 L83.5,50 A3.75,3.75 0 0 1 86,52.5 L93,73.6094 L5264.5,73.6094 A2.5,2.5 0 0 1 5267,76.1094 L5267,1348.5 A2.5,2.5 0 0 1 5264.5,1351 L32.5,1351 A2.5,2.5 0 0 1 30,1348.5 L30,52.5 A2.5,2.5 0 0 1 32.5,50 " fill="none" style="stroke:#000000;stroke-width:1.5;"/><line style="stroke:#000000;stroke-width:1.5;" x1="30" x2="93" y1="73.6094" y2="73.6094"/><text fill="#000000" font-family="sans-serif" font-size="14" font-weight="bold" lengthAdjust="spacing" textLength="50" x="34" y="66.5332">heroes</text></g><!--cluster config--><g id="cluster_config"><path d="M4873.5,278.5 L4918.5,278.5 A3.75,3.75 0 0 1 4921,281 L4928,302.1094 L5240.5,302.1094 A2.5,2.5 0 0 1 5243,304.6094 L5243,429 A2.5,2.5 0 0 1 5240.5,431.5 L4873.5,431.5 A2.5,2.5 0 0 1 4871,429 L4871,281 A2.5,2.5 0 0 1 4873.5,278.5 " fill="none" style="stroke:#000000;stroke-width:1.5;"/><line style="stroke:#000000;stroke-width:1.5;" x1="4871" x2="4928" y1="302.1094" y2="302.1094"/><text fill="#000000" font-family="sans-serif" font-size="14" font-weight="bold" lengthAdjust="spacing" textLength="44" x="4875" y="295.0332">config</text></g><!--cluster domain--><g id="cluster_domain"><path d="M2133.5,261 L2185.5,261 A3.75,3.75 0 0 1 2188,263.5 L2195,284.6094 L3433.5,284.6094 A2.5,2.5 0 0 1 3436,287.1094 L3436,1324.5 A2.5,2.5 0 0 1 3433.5,1327 L2133.5,1327 A2.5,2.5 0 0 1 2131,1324.5 L2131,263.5 A2.5,2.5 0 0 1 2133.5,261 " fill="none" style="stroke:#000000;stroke-width:1.5;"/><line style="stroke:#000000;stroke-width:1.5;" x1="2131" x2="2195" y1="284.6094" y2="284.6094"/><text fill="#000000" font-family="sans-serif" font-size="14" font-weight="bold" lengthAdjust="spacing" textLength="51" x="2135" y="277.5332">domain</text></g><!--cluster model--><g id="cluster_model"><path d="M2900.5,778 L2944.5,778 A3.75,3.75 0 0 1 2947,780.5 L2954,801.6094 L3409.5,801.6094 A2.5,2.5 0 0 1 3412,804.1094 L3412,1300.5 A2.5,2.5 0 0 1 3409.5,1303 L2900.5,1303 A2.5,2.5 0 0 1 2898,1300.5 L2898,780.5 A2.5,2.5 0 0 1 2900.5,778 " fill="none" style="stroke:#000000;stroke-width:1.5;"/><line style="stroke:#000000;stroke-width:1.5;" x1="2898" x2="2954" y1="801.6094" y2="801.6094"/><text fill="#000000" font-family="sans-serif" font-size="14" font-weight="bold" lengthAdjust="spacing" textLength="43" x="2902" y="794.5332">model</text></g><!--cluster usecase--><g id="cluster_usecase"><path d="M2236.5,305 L2296.5,305 A3.75,3.75 0 0 1 2299,307.5 L2306,328.6094 L3409.5,328.6094 A2.5,2.5 0 0 1 3412,331.1094 L3412,679.5 A2.5,2.5 0 0 1 3409.5,682 L2236.5,682 A2.5,2.5 0 0 1 2234,679.5 L2234,307.5 A2.5,2.5 0 0 1 2236.5,305 " fill="none" style="stroke:#000000;stroke-width:1.5;"/><line style="stroke:#000000;stroke-width:1.5;" x1="2234" x2="2306" y1="328.6094" y2="328.6094"/><text fill="#000000" font-family="sans-serif" font-size="14" font-weight="bold" lengthAdjust="spacing" textLength="59" x="2238" y="321.5332">usecase</text></g><!--cluster strategy--><g id="cluster_strategy"><path d="M2157.5,813 L2215.5,813 A3.75,3.75 0 0 1 2218,815.5 L2225,836.6094 L2871.5,836.6094 A2.5,2.5 0 0 1 2874,839.1094 L2874,1204 A2.5,2.5 0 0 1 2871.5,1206.5 L2157.5,1206.5 A2.5,2.5 0 0 1 2155,1204 L2155,815.5 A2.5,2.5 0 0 1 2157.5,813 " fill="none" style="stroke:#000000;stroke-width:1.5;"/><line style="stroke:#000000;stroke-width:1.5;" x1="2155" x2="2225" y1="836.6094" y2="836.6094"/><text fill="#000000" font-family="sans-serif" font-size="14" font-weight="bold" lengthAdjust="spacing" textLength="57" x="2159" y="829.5332">strategy</text></g><!--cluster port--><g id="cluster_port"><path d="M1188.5,270 L1218.5,270 A3.75,3.75 0 0 1 1221,272.5 L1228,293.6094 L2104.5,293.6094 A2.5,2.5 0 0 1 2107,296.1094 L2107,653.5 A2.5,2.5 0 0 1 2104.5,656 L1188.5,656 A2.5,2.5 0 0 1 1186,653.5 L1186,272.5 A2.5,2.5 0 0 1 1188.5,270 " fill="none" style="stroke:#000000;stroke-width:1.5;"/><line style="stroke:#000000;stroke-width:1.5;" x1="1186" x2="1228" y1="293.6094" y2="293.6094"/><text fill="#000000" font-family="sans-serif" font-size="14" font-weight="bold" lengthAdjust="spacing" textLength="29" x="1190" y="286.5332">port</text></g><!--cluster adapter--><g id="cluster_adapter"><path d="M3462.5,94 L3517.5,94 A3.75,3.75 0 0 1 3520,96.5 L3527,117.6094 L4844.5,117.6094 A2.5,2.5 0 0 1 4847,120.1094 L4847,725.5 A2.5,2.5 0 0 1 4844.5,728 L3462.5,728 A2.5,2.5 0 0 1 3460,725.5 L3460,96.5 A2.5,2.5 0 0 1 3462.5,94 " fill="none" style="stroke:#000000;stroke-width:1.5;"/><line style="stroke:#000000;stroke-width:1.5;" x1="3460" x2="3527" y1="117.6094" y2="117.6094"/><text fill="#000000" font-family="sans-serif" font-size="14" font-weight="bold" lengthAdjust="spacing" textLength="54" x="3464" y="110.5332">adapter</text></g><!--cluster inbound--><g id="cluster_inbound"><path d="M3486.5,138 L3545.5,138 A3.75,3.75 0 0 1 3548,140.5 L3555,161.6094 L4820.5,161.6094 A2.5,2.5 0 0 1 4823,164.1094 L4823,701.5 A2.5,2.5 0 0 1 4820.5,704 L3486.5,704 A2.5,2.5 0 0 1 3484,701.5 L3484,140.5 A2.5,2.5 0 0 1 3486.5,138 " fill="none" style="stroke:#000000;stroke-width:1.5;"/><line style="stroke:#000000;stroke-width:1.5;" x1="3484" x2="3555" y1="161.6094" y2="161.6094"/><text fill="#000000" font-family="sans-serif" font-size="14" font-weight="bold" lengthAdjust="spacing" textLength="58" x="3488" y="154.5332">inbound</text></g><!--cluster rest--><g id="cluster_rest"><path d="M3510.5,182 L3539.5,182 A3.75,3.75 0 0 1 3542,184.5 L3549,205.6094 L4796.5,205.6094 A2.5,2.5 0 0 1 4799,208.1094 L4799,677.5 A2.5,2.5 0 0 1 4796.5,680 L3510.5,680 A2.5,2.5 0 0 1 3508,677.5 L3508,184.5 A2.5,2.5 0 0 1 3510.5,182 " fill="none" style="stroke:#000000;stroke-width:1.5;"/><line style="stroke:#000000;stroke-width:1.5;" x1="3508" x2="3549" y1="205.6094" y2="205.6094"/><text fill="#000000" font-family="sans-serif" font-size="14" font-weight="bold" lengthAdjust="spacing" textLength="28" x="3512" y="198.5332">rest</text></g><!--cluster dto--><g id="cluster_dto"><path d="M4268.5,226 L4292.5,226 A3.75,3.75 0 0 1 4295,228.5 L4302,249.6094 L4772.5,249.6094 A2.5,2.5 0 0 1 4775,252.1094 L4775,481.5 A2.5,2.5 0 0 1 4772.5,484 L4268.5,484 A2.5,2.5 0 0 1 4266,481.5 L4266,228.5 A2.5,2.5 0 0 1 4268.5,226 " fill="none" style="stroke:#000000;stroke-width:1.5;"/><line style="stroke:#000000;stroke-width:1.5;" x1="4266" x2="4302" y1="249.6094" y2="249.6094"/><text fill="#000000" font-family="sans-serif" font-size="14" font-weight="bold" lengthAdjust="spacing" textLength="23" x="4270" y="242.5332">dto</text></g><!--cluster mapper--><g id="cluster_mapper"><path d="M3730.5,538 L3784.5,538 A3.75,3.75 0 0 1 3787,540.5 L3794,561.6094 L4041.5,561.6094 A2.5,2.5 0 0 1 4044,564.1094 L4044,653.5 A2.5,2.5 0 0 1 4041.5,656 L3730.5,656 A2.5,2.5 0 0 1 3728,653.5 L3728,540.5 A2.5,2.5 0 0 1 3730.5,538 " fill="none" style="stroke:#000000;stroke-width:1.5;"/><line style="stroke:#000000;stroke-width:1.5;" x1="3728" x2="3794" y1="561.6094" y2="561.6094"/><text fill="#000000" font-family="sans-serif" font-size="14" font-weight="bold" lengthAdjust="spacing" textLength="53" x="3732" y="554.5332">mapper</text></g><!--cluster exception--><g id="cluster_exception"><path d="M56.5,270 L127.5,270 A3.75,3.75 0 0 1 130,272.5 L137,293.6094 L1159.5,293.6094 A2.5,2.5 0 0 1 1162,296.1094 L1162,437.5 A2.5,2.5 0 0 1 1159.5,440 L56.5,440 A2.5,2.5 0 0 1 54,437.5 L54,272.5 A2.5,2.5 0 0 1 56.5,270 " fill="none" style="stroke:#000000;stroke-width:1.5;"/><line style="stroke:#000000;stroke-width:1.5;" x1="54" x2="137" y1="293.6094" y2="293.6094"/><text fill="#000000" font-family="sans-serif" font-size="14" font-weight="bold" lengthAdjust="spacing" textLength="70" x="58" y="286.5332">exception</text></g><!--cluster PartyResponse--><g id="cluster_PartyResponse"><path d="M5752.5,547 L5859.5,547 A3.75,3.75 0 0 1 5862,549.5 L5869,570.6094 L5905.5,570.6094 A2.5,2.5 0 0 1 5908,573.1094 L5908,644.5 A2.5,2.5 0 0 1 5905.5,647 L5752.5,647 A2.5,2.5 0 0 1 5750,644.5 L5750,549.5 A2.5,2.5 0 0 1 5752.5,547 " fill="none" style="stroke:#000000;stroke-width:1.5;"/><line style="stroke:#000000;stroke-width:1.5;" x1="5750" x2="5869" y1="570.6094" y2="570.6094"/><text fill="#000000" font-family="sans-serif" font-size="14" font-weight="bold" lengthAdjust="spacing" textLength="106" x="5754" y="563.5332">PartyResponse</text></g><!--class AppConfig--><g id="elem_AppConfig"><rect codeLine="2" fill="#F1F1F1" height="100.8281" id="AppConfig" rx="2.5" ry="2.5" style="stroke:#181818;stroke-width:0.5;" width="339" x="4887.5" y="314.5"/><ellipse cx="5019.75" cy="330.5" fill="#ADD1B2" rx="11" ry="11" style="stroke:#181818;stroke-width:1.0;"/><path d="M5022.5156,326.375 Q5022.6719,326.1563 5022.8594,326.0469 Q5023.0469,325.9375 5023.2656,325.9375 Q5023.6406,325.9375 5023.875,326.2031 Q5024.1094,326.4531 5024.1094,327.0625 L5024.1094,328.5156 Q5024.1094,329.125 5023.875,329.3906 Q5023.6406,329.6563 5023.2656,329.6563 Q5022.9219,329.6563 5022.7188,329.4531 Q5022.5156,329.2656 5022.4063,328.75 Q5022.3594,328.3906 5022.1719,328.2031 Q5021.8438,327.8281 5021.2344,327.6094 Q5020.625,327.3906 5020,327.3906 Q5019.2344,327.3906 5018.5938,327.7188 Q5017.9688,328.0469 5017.4688,328.7969 Q5016.9844,329.5469 5016.9844,330.5781 L5016.9844,331.6719 Q5016.9844,332.9063 5017.875,333.7344 Q5018.7656,334.5469 5020.3594,334.5469 Q5021.2969,334.5469 5021.9531,334.2969 Q5022.3438,334.1406 5022.7656,333.7031 Q5023.0313,333.4375 5023.1719,333.3594 Q5023.3281,333.2813 5023.5313,333.2813 Q5023.8594,333.2813 5024.1094,333.5469 Q5024.375,333.7969 5024.375,334.1406 Q5024.375,334.4844 5024.0313,334.8906 Q5023.5313,335.4688 5022.7344,335.7969 Q5021.6563,336.25 5020.3594,336.25 Q5018.8438,336.25 5017.6406,335.625 Q5016.6563,335.125 5015.9688,334.0625 Q5015.2813,332.9844 5015.2813,331.7031 L5015.2813,330.5469 Q5015.2813,329.2188 5015.8906,328.0781 Q5016.5156,326.9219 5017.6094,326.3125 Q5018.7031,325.6875 5019.9375,325.6875 Q5020.6719,325.6875 5021.3125,325.8594 Q5021.9688,326.0156 5022.5156,326.375 Z " fill="#000000"/><text fill="#000000" font-family="sans-serif" font-size="14" lengthAdjust="spacing" textLength="66" x="5040.25" y="336.2285">AppConfig</text><line style="stroke:#181818;stroke-width:0.5;" x1="4888.5" x2="5225.5" y1="346.5" y2="346.5"/><line style="stroke:#181818;stroke-width:0.5;" x1="4888.5" x2="5225.5" y1="354.5" y2="354.5"/><ellipse cx="4898.5" cy="368.8047" fill="#84BE84" rx="3" ry="3" style="stroke:#038048;stroke-width:1.0;"/><text fill="#000000" font-family="sans-serif" font-size="14" lengthAdjust="spacing" textLength="180" x="4907.5" y="373.0332">partyService(): IPartyService</text><ellipse cx="4898.5" cy="386.4141" fill="#84BE84" rx="3" ry="3" style="stroke:#038048;stroke-width:1.0;"/><text fill="#000000" font-family="sans-serif" font-size="14" lengthAdjust="spacing" textLength="293" x="4907.5" y="390.6426">combatService(IPartyService): ICombatService</text><ellipse cx="4898.5" cy="404.0234" fill="#84BE84" rx="3" ry="3" style="stroke:#038048;stroke-width:1.0;"/><text fill="#000000" font-family="sans-serif" font-size="14" lengthAdjust="spacing" textLength="313" x="4907.5" y="408.252">recoveryService(IPartyService): IRecoveryService</text></g><!--class Hero--><g id="elem_Hero"><rect codeLine="10" fill="#F1F1F1" height="259.3125" id="Hero" rx="2.5" ry="2.5" style="stroke:#181818;stroke-width:0.5;" width="234" x="3162" y="1028"/><ellipse cx="3259.75" cy="1044" fill="#ADD1B2" rx="11" ry="11" style="stroke:#181818;stroke-width:1.0;"/><path d="M3262.5156,1039.875 Q3262.6719,1039.6563 3262.8594,1039.5469 Q3263.0469,1039.4375 3263.2656,1039.4375 Q3263.6406,1039.4375 3263.875,1039.7031 Q3264.1094,1039.9531 3264.1094,1040.5625 L3264.1094,1042.0156 Q3264.1094,1042.625 3263.875,1042.8906 Q3263.6406,1043.1563 3263.2656,1043.1563 Q3262.9219,1043.1563 3262.7188,1042.9531 Q3262.5156,1042.7656 3262.4063,1042.25 Q3262.3594,1041.8906 3262.1719,1041.7031 Q3261.8438,1041.3281 3261.2344,1041.1094 Q3260.625,1040.8906 3260,1040.8906 Q3259.2344,1040.8906 3258.5938,1041.2188 Q3257.9688,1041.5469 3257.4688,1042.2969 Q3256.9844,1043.0469 3256.9844,1044.0781 L3256.9844,1045.1719 Q3256.9844,1046.4063 3257.875,1047.2344 Q3258.7656,1048.0469 3260.3594,1048.0469 Q3261.2969,1048.0469 3261.9531,1047.7969 Q3262.3438,1047.6406 3262.7656,1047.2031 Q3263.0313,1046.9375 3263.1719,1046.8594 Q3263.3281,1046.7813 3263.5313,1046.7813 Q3263.8594,1046.7813 3264.1094,1047.0469 Q3264.375,1047.2969 3264.375,1047.6406 Q3264.375,1047.9844 3264.0313,1048.3906 Q3263.5313,1048.9688 3262.7344,1049.2969 Q3261.6563,1049.75 3260.3594,1049.75 Q3258.8438,1049.75 3257.6406,1049.125 Q3256.6563,1048.625 3255.9688,1047.5625 Q3255.2813,1046.4844 3255.2813,1045.2031 L3255.2813,1044.0469 Q3255.2813,1042.7188 3255.8906,1041.5781 Q3256.5156,1040.4219 3257.6094,1039.8125 Q3258.7031,1039.1875 3259.9375,1039.1875 Q3260.6719,1039.1875 3261.3125,1039.3594 Q3261.9688,1039.5156 3262.5156,1039.875 Z " fill="#000000"/><text fill="#000000" font-family="sans-serif" font-size="14" lengthAdjust="spacing" textLength="30" x="3280.25" y="1049.7285">Hero</text><line style="stroke:#181818;stroke-width:0.5;" x1="3163" x2="3395" y1="1060" y2="1060"/><rect fill="none" height="6" style="stroke:#C82930;stroke-width:1.0;" width="6" x="3170" y="1071.3047"/><text fill="#000000" font-family="sans-serif" font-size="14" lengthAdjust="spacing" textLength="34" x="3182" y="1078.5332">id: int</text><rect fill="none" height="6" style="stroke:#C82930;stroke-width:1.0;" width="6" x="3170" y="1088.9141"/><text fill="#000000" font-family="sans-serif" font-size="14" lengthAdjust="spacing" textLength="62" x="3182" y="1096.1426">health: int</text><rect fill="none" height="6" style="stroke:#C82930;stroke-width:1.0;" width="6" x="3170" y="1106.5234"/><text fill="#000000" font-family="sans-serif" font-size="14" lengthAdjust="spacing" textLength="58" x="3182" y="1113.752">mana: int</text><rect fill="none" height="6" style="stroke:#C82930;stroke-width:1.0;" width="6" x="3170" y="1124.1328"/><text fill="#000000" font-family="sans-serif" font-size="14" lengthAdjust="spacing" textLength="119" x="3182" y="1131.3613">inCombat: boolean</text><line style="stroke:#181818;stroke-width:0.5;" x1="3163" x2="3395" y1="1138.4375" y2="1138.4375"/><ellipse cx="3173" cy="1152.7422" fill="#84BE84" rx="3" ry="3" style="stroke:#038048;stroke-width:1.0;"/><text fill="#000000" font-family="sans-serif" font-size="14" lengthAdjust="spacing" textLength="64" x="3182" y="1156.9707">getId(): int</text><ellipse cx="3173" cy="1170.3516" fill="#84BE84" rx="3" ry="3" style="stroke:#038048;stroke-width:1.0;"/><text fill="#000000" font-family="sans-serif" font-size="14" lengthAdjust="spacing" textLength="93" x="3182" y="1174.5801">getHealth(): int</text><ellipse cx="3173" cy="1187.9609" fill="#84BE84" rx="3" ry="3" style="stroke:#038048;stroke-width:1.0;"/><text fill="#000000" font-family="sans-serif" font-size="14" lengthAdjust="spacing" textLength="88" x="3182" y="1192.1895">getMana(): int</text><ellipse cx="3173" cy="1205.5703" fill="#84BE84" rx="3" ry="3" style="stroke:#038048;stroke-width:1.0;"/><text fill="#000000" font-family="sans-serif" font-size="14" lengthAdjust="spacing" textLength="139" x="3182" y="1209.7988">isInCombat(): boolean</text><ellipse cx="3173" cy="1223.1797" fill="#84BE84" rx="3" ry="3" style="stroke:#038048;stroke-width:1.0;"/><text fill="#000000" font-family="sans-serif" font-size="14" lengthAdjust="spacing" textLength="74" x="3182" y="1227.4082">setId(id: int)</text><ellipse cx="3173" cy="1240.7891" fill="#84BE84" rx="3" ry="3" style="stroke:#038048;stroke-width:1.0;"/><text fill="#000000" font-family="sans-serif" font-size="14" lengthAdjust="spacing" textLength="131" x="3182" y="1245.0176">setHealth(health: int)</text><ellipse cx="3173" cy="1258.3984" fill="#84BE84" rx="3" ry="3" style="stroke:#038048;stroke-width:1.0;"/><text fill="#000000" font-family="sans-serif" font-size="14" lengthAdjust="spacing" textLength="122" x="3182" y="1262.627">setMana(mana: int)</text><ellipse cx="3173" cy="1276.0078" fill="#84BE84" rx="3" ry="3" style="stroke:#038048;stroke-width:1.0;"/><text fill="#000000" font-family="sans-serif" font-size="14" lengthAdjust="spacing" textLength="208" x="3182" y="1280.2363">setInCombat(inCombat: boolean)</text></g><!--class Party--><g id="elem_Party"><rect codeLine="25" fill="#F1F1F1" height="136.0469" id="Party" rx="2.5" ry="2.5" style="stroke:#181818;stroke-width:0.5;" width="177" x="3218.5" y="814"/><ellipse cx="3286.25" cy="830" fill="#ADD1B2" rx="11" ry="11" style="stroke:#181818;stroke-width:1.0;"/><path d="M3289.0156,825.875 Q3289.1719,825.6563 3289.3594,825.5469 Q3289.5469,825.4375 3289.7656,825.4375 Q3290.1406,825.4375 3290.375,825.7031 Q3290.6094,825.9531 3290.6094,826.5625 L3290.6094,828.0156 Q3290.6094,828.625 3290.375,828.8906 Q3290.1406,829.1563 3289.7656,829.1563 Q3289.4219,829.1563 3289.2188,828.9531 Q3289.0156,828.7656 3288.9063,828.25 Q3288.8594,827.8906 3288.6719,827.7031 Q3288.3438,827.3281 3287.7344,827.1094 Q3287.125,826.8906 3286.5,826.8906 Q3285.7344,826.8906 3285.0938,827.2188 Q3284.4688,827.5469 3283.9688,828.2969 Q3283.4844,829.0469 3283.4844,830.0781 L3283.4844,831.1719 Q3283.4844,832.4063 3284.375,833.2344 Q3285.2656,834.0469 3286.8594,834.0469 Q3287.7969,834.0469 3288.4531,833.7969 Q3288.8438,833.6406 3289.2656,833.2031 Q3289.5313,832.9375 3289.6719,832.8594 Q3289.8281,832.7813 3290.0313,832.7813 Q3290.3594,832.7813 3290.6094,833.0469 Q3290.875,833.2969 3290.875,833.6406 Q3290.875,833.9844 3290.5313,834.3906 Q3290.0313,834.9688 3289.2344,835.2969 Q3288.1563,835.75 3286.8594,835.75 Q3285.3438,835.75 3284.1406,835.125 Q3283.1563,834.625 3282.4688,833.5625 Q3281.7813,832.4844 3281.7813,831.2031 L3281.7813,830.0469 Q3281.7813,828.7188 3282.3906,827.5781 Q3283.0156,826.4219 3284.1094,825.8125 Q3285.2031,825.1875 3286.4375,825.1875 Q3287.1719,825.1875 3287.8125,825.3594 Q3288.4688,825.5156 3289.0156,825.875 Z " fill="#000000"/><text fill="#000000" font-family="sans-serif" font-size="14" lengthAdjust="spacing" textLength="33" x="3306.75" y="835.7285">Party</text><line style="stroke:#181818;stroke-width:0.5;" x1="3219.5" x2="3394.5" y1="846" y2="846"/><rect fill="none" height="6" style="stroke:#C82930;stroke-width:1.0;" width="6" x="3226.5" y="857.3047"/><text fill="#000000" font-family="sans-serif" font-size="14" lengthAdjust="spacing" textLength="120" x="3238.5" y="864.5332">heroes: List&lt;Hero&gt;</text><rect fill="none" height="6" style="stroke:#C82930;stroke-width:1.0;" width="6" x="3226.5" y="874.9141"/><text fill="#000000" font-family="sans-serif" font-size="14" lengthAdjust="spacing" textLength="66" x="3238.5" y="882.1426">morale: int</text><line style="stroke:#181818;stroke-width:0.5;" x1="3219.5" x2="3394.5" y1="889.2188" y2="889.2188"/><ellipse cx="3229.5" cy="903.5234" fill="#84BE84" rx="3" ry="3" style="stroke:#038048;stroke-width:1.0;"/><text fill="#000000" font-family="sans-serif" font-size="14" lengthAdjust="spacing" textLength="151" x="3238.5" y="907.752">getHeroes(): List&lt;Hero&gt;</text><ellipse cx="3229.5" cy="921.1328" fill="#84BE84" rx="3" ry="3" style="stroke:#038048;stroke-width:1.0;"/><text fill="#000000" font-family="sans-serif" font-size="14" lengthAdjust="spacing" textLength="96" x="3238.5" y="925.3613">getMorale(): int</text><ellipse cx="3229.5" cy="938.7422" fill="#84BE84" rx="3" ry="3" style="stroke:#038048;stroke-width:1.0;"/><text fill="#000000" font-family="sans-serif" font-size="14" lengthAdjust="spacing" textLength="138" x="3238.5" y="942.9707">setMorale(morale: int)</text></g><!--class CombatType--><g id="elem_CombatType"><rect codeLine="33" fill="#F1F1F1" height="83.2188" id="CombatType" rx="2.5" ry="2.5" style="stroke:#181818;stroke-width:0.5;" width="113" x="3070.5" y="840.5"/><ellipse cx="3085.5" cy="856.5" fill="#EB937F" rx="11" ry="11" style="stroke:#181818;stroke-width:1.0;"/><path d="M3084.3594,857.2969 L3084.3594,859.7969 L3088.6875,859.7969 L3088.6875,858.875 Q3088.6875,858.2656 3088.9219,858 Q3089.1719,857.7344 3089.5469,857.7344 Q3089.9219,857.7344 3090.1563,858 Q3090.3906,858.2656 3090.3906,858.875 L3090.3906,861.5 L3082.3906,861.5 Q3081.7656,861.5 3081.5,861.2656 Q3081.25,861.0313 3081.25,860.6406 Q3081.25,860.2656 3081.5156,860.0313 Q3081.7813,859.7969 3082.3906,859.7969 L3082.6563,859.7969 L3082.6563,853.1406 L3082.3906,853.1406 Q3081.7656,853.1406 3081.5,852.9063 Q3081.25,852.6719 3081.25,852.2813 Q3081.25,851.9063 3081.5,851.6719 Q3081.7656,851.4375 3082.3906,851.4375 L3090.0156,851.4375 L3090.0156,854.0313 Q3090.0156,854.6406 3089.7813,854.9063 Q3089.5625,855.1563 3089.1719,855.1563 Q3088.7969,855.1563 3088.5625,854.9063 Q3088.3281,854.6406 3088.3281,854.0313 L3088.3281,853.1406 L3084.3594,853.1406 L3084.3594,855.5938 L3085.8438,855.5938 Q3085.8438,854.9375 3085.9688,854.75 Q3086.2344,854.3438 3086.7031,854.3438 Q3087.0781,854.3438 3087.3125,854.6094 Q3087.5469,854.8594 3087.5469,855.4688 L3087.5469,857.4375 Q3087.5469,857.9844 3087.4219,858.1719 Q3087.1563,858.5625 3086.7031,858.5625 Q3086.2344,858.5625 3085.9688,858.1563 Q3085.8438,857.9688 3085.8438,857.2969 L3084.3594,857.2969 Z " fill="#000000"/><text fill="#000000" font-family="sans-serif" font-size="14" lengthAdjust="spacing" textLength="81" x="3099.5" y="862.2285">CombatType</text><line style="stroke:#181818;stroke-width:0.5;" x1="3071.5" x2="3182.5" y1="872.5" y2="872.5"/><text fill="#000000" font-family="sans-serif" font-size="14" lengthAdjust="spacing" textLength="50" x="3076.5" y="891.0332">MELEE,</text><text fill="#000000" font-family="sans-serif" font-size="14" lengthAdjust="spacing" textLength="43" x="3076.5" y="908.6426">SPELL</text><line style="stroke:#181818;stroke-width:0.5;" x1="3071.5" x2="3182.5" y1="915.7188" y2="915.7188"/></g><!--class CombatResult--><g id="elem_CombatResult"><rect codeLine="38" fill="#F1F1F1" height="83.2188" id="CombatResult" rx="2.5" ry="2.5" style="stroke:#181818;stroke-width:0.5;" width="121" x="2914.5" y="840.5"/><ellipse cx="2929.5" cy="856.5" fill="#EB937F" rx="11" ry="11" style="stroke:#181818;stroke-width:1.0;"/><path d="M2928.3594,857.2969 L2928.3594,859.7969 L2932.6875,859.7969 L2932.6875,858.875 Q2932.6875,858.2656 2932.9219,858 Q2933.1719,857.7344 2933.5469,857.7344 Q2933.9219,857.7344 2934.1563,858 Q2934.3906,858.2656 2934.3906,858.875 L2934.3906,861.5 L2926.3906,861.5 Q2925.7656,861.5 2925.5,861.2656 Q2925.25,861.0313 2925.25,860.6406 Q2925.25,860.2656 2925.5156,860.0313 Q2925.7813,859.7969 2926.3906,859.7969 L2926.6563,859.7969 L2926.6563,853.1406 L2926.3906,853.1406 Q2925.7656,853.1406 2925.5,852.9063 Q2925.25,852.6719 2925.25,852.2813 Q2925.25,851.9063 2925.5,851.6719 Q2925.7656,851.4375 2926.3906,851.4375 L2934.0156,851.4375 L2934.0156,854.0313 Q2934.0156,854.6406 2933.7813,854.9063 Q2933.5625,855.1563 2933.1719,855.1563 Q2932.7969,855.1563 2932.5625,854.9063 Q2932.3281,854.6406 2932.3281,854.0313 L2932.3281,853.1406 L2928.3594,853.1406 L2928.3594,855.5938 L2929.8438,855.5938 Q2929.8438,854.9375 2929.9688,854.75 Q2930.2344,854.3438 2930.7031,854.3438 Q2931.0781,854.3438 2931.3125,854.6094 Q2931.5469,854.8594 2931.5469,855.4688 L2931.5469,857.4375 Q2931.5469,857.9844 2931.4219,858.1719 Q2931.1563,858.5625 2930.7031,858.5625 Q2930.2344,858.5625 2929.9688,858.1563 Q2929.8438,857.9688 2929.8438,857.2969 L2928.3594,857.2969 Z " fill="#000000"/><text fill="#000000" font-family="sans-serif" font-size="14" lengthAdjust="spacing" textLength="89" x="2943.5" y="862.2285">CombatResult</text><line style="stroke:#181818;stroke-width:0.5;" x1="2915.5" x2="3034.5" y1="872.5" y2="872.5"/><text fill="#000000" font-family="sans-serif" font-size="14" lengthAdjust="spacing" textLength="29" x="2920.5" y="891.0332">WIN,</text><text fill="#000000" font-family="sans-serif" font-size="14" lengthAdjust="spacing" textLength="37" x="2920.5" y="908.6426">LOSE</text><line style="stroke:#181818;stroke-width:0.5;" x1="2915.5" x2="3034.5" y1="915.7188" y2="915.7188"/></g><!--class CombatServiceImpl--><g id="elem_CombatServiceImpl"><rect codeLine="45" fill="#F1F1F1" height="83.2188" id="CombatServiceImpl" rx="2.5" ry="2.5" style="stroke:#181818;stroke-width:0.5;" width="598" x="2250" y="565.5"/><ellipse cx="2484.25" cy="581.5" fill="#ADD1B2" rx="11" ry="11" style="stroke:#181818;stroke-width:1.0;"/><path d="M2487.0156,577.375 Q2487.1719,577.1563 2487.3594,577.0469 Q2487.5469,576.9375 2487.7656,576.9375 Q2488.1406,576.9375 2488.375,577.2031 Q2488.6094,577.4531 2488.6094,578.0625 L2488.6094,579.5156 Q2488.6094,580.125 2488.375,580.3906 Q2488.1406,580.6563 2487.7656,580.6563 Q2487.4219,580.6563 2487.2188,580.4531 Q2487.0156,580.2656 2486.9063,579.75 Q2486.8594,579.3906 2486.6719,579.2031 Q2486.3438,578.8281 2485.7344,578.6094 Q2485.125,578.3906 2484.5,578.3906 Q2483.7344,578.3906 2483.0938,578.7188 Q2482.4688,579.0469 2481.9688,579.7969 Q2481.4844,580.5469 2481.4844,581.5781 L2481.4844,582.6719 Q2481.4844,583.9063 2482.375,584.7344 Q2483.2656,585.5469 2484.8594,585.5469 Q2485.7969,585.5469 2486.4531,585.2969 Q2486.8438,585.1406 2487.2656,584.7031 Q2487.5313,584.4375 2487.6719,584.3594 Q2487.8281,584.2813 2488.0313,584.2813 Q2488.3594,584.2813 2488.6094,584.5469 Q2488.875,584.7969 2488.875,585.1406 Q2488.875,585.4844 2488.5313,585.8906 Q2488.0313,586.4688 2487.2344,586.7969 Q2486.1563,587.25 2484.8594,587.25 Q2483.3438,587.25 2482.1406,586.625 Q2481.1563,586.125 2480.4688,585.0625 Q2479.7813,583.9844 2479.7813,582.7031 L2479.7813,581.5469 Q2479.7813,580.2188 2480.3906,579.0781 Q2481.0156,577.9219 2482.1094,577.3125 Q2483.2031,576.6875 2484.4375,576.6875 Q2485.1719,576.6875 2485.8125,576.8594 Q2486.4688,577.0156 2487.0156,577.375 Z " fill="#000000"/><text fill="#000000" font-family="sans-serif" font-size="14" lengthAdjust="spacing" textLength="121" x="2504.75" y="587.2285">CombatServiceImpl</text><line style="stroke:#181818;stroke-width:0.5;" x1="2251" x2="2847" y1="597.5" y2="597.5"/><line style="stroke:#181818;stroke-width:0.5;" x1="2251" x2="2847" y1="605.5" y2="605.5"/><ellipse cx="2261" cy="619.8047" fill="#84BE84" rx="3" ry="3" style="stroke:#038048;stroke-width:1.0;"/><text fill="#000000" font-family="sans-serif" font-size="14" lengthAdjust="spacing" textLength="572" x="2270" y="624.0332">processCombat(heroId: int, combatType: CombatType, combatResult: CombatResult): void</text><ellipse cx="2261" cy="637.4141" fill="#84BE84" rx="3" ry="3" style="stroke:#038048;stroke-width:1.0;"/><text fill="#000000" font-family="sans-serif" font-size="14" lengthAdjust="spacing" textLength="428" x="2270" y="641.6426">updatePartyMorale(party: Party, combatResult: CombatResult): void</text></g><!--class ICombatService--><g id="elem_ICombatService"><rect fill="#F1F1F1" height="48" id="ICombatService" rx="2.5" ry="2.5" style="stroke:#181818;stroke-width:0.5;" width="131" x="2483.5" y="341"/><ellipse cx="2498.5" cy="357" fill="#B4A7E5" rx="11" ry="11" style="stroke:#181818;stroke-width:1.0;"/><path d="M2499.4531,353.6406 L2499.4531,360.2969 L2501.1719,360.2969 Q2501.7813,360.2969 2502.0469,360.5313 Q2502.3125,360.7656 2502.3125,361.1563 Q2502.3125,361.5313 2502.0469,361.7656 Q2501.7813,362 2501.1719,362 L2496.0313,362 Q2495.4219,362 2495.1563,361.7656 Q2494.8906,361.5313 2494.8906,361.1406 Q2494.8906,360.7656 2495.1563,360.5313 Q2495.4219,360.2969 2496.0313,360.2969 L2497.75,360.2969 L2497.75,353.6406 L2496.0313,353.6406 Q2495.4219,353.6406 2495.1563,353.4063 Q2494.8906,353.1719 2494.8906,352.7813 Q2494.8906,352.4063 2495.1563,352.1719 Q2495.4219,351.9375 2496.0313,351.9375 L2501.1719,351.9375 Q2501.7813,351.9375 2502.0469,352.1719 Q2502.3125,352.4063 2502.3125,352.7813 Q2502.3125,353.1719 2502.0469,353.4063 Q2501.7813,353.6406 2501.1719,353.6406 L2499.4531,353.6406 Z " fill="#000000"/><text fill="#000000" font-family="sans-serif" font-size="14" font-style="italic" lengthAdjust="spacing" textLength="99" x="2512.5" y="362.7285">ICombatService</text><line style="stroke:#181818;stroke-width:0.5;" x1="2484.5" x2="2613.5" y1="373" y2="373"/><line style="stroke:#181818;stroke-width:0.5;" x1="2484.5" x2="2613.5" y1="381" y2="381"/></g><!--class PartyServiceImpl--><g id="elem_PartyServiceImpl"><rect codeLine="50" fill="#F1F1F1" height="118.4375" id="PartyServiceImpl" rx="2.5" ry="2.5" style="stroke:#181818;stroke-width:0.5;" width="256" x="2883" y="548"/><ellipse cx="2954.25" cy="564" fill="#ADD1B2" rx="11" ry="11" style="stroke:#181818;stroke-width:1.0;"/><path d="M2957.0156,559.875 Q2957.1719,559.6563 2957.3594,559.5469 Q2957.5469,559.4375 2957.7656,559.4375 Q2958.1406,559.4375 2958.375,559.7031 Q2958.6094,559.9531 2958.6094,560.5625 L2958.6094,562.0156 Q2958.6094,562.625 2958.375,562.8906 Q2958.1406,563.1563 2957.7656,563.1563 Q2957.4219,563.1563 2957.2188,562.9531 Q2957.0156,562.7656 2956.9063,562.25 Q2956.8594,561.8906 2956.6719,561.7031 Q2956.3438,561.3281 2955.7344,561.1094 Q2955.125,560.8906 2954.5,560.8906 Q2953.7344,560.8906 2953.0938,561.2188 Q2952.4688,561.5469 2951.9688,562.2969 Q2951.4844,563.0469 2951.4844,564.0781 L2951.4844,565.1719 Q2951.4844,566.4063 2952.375,567.2344 Q2953.2656,568.0469 2954.8594,568.0469 Q2955.7969,568.0469 2956.4531,567.7969 Q2956.8438,567.6406 2957.2656,567.2031 Q2957.5313,566.9375 2957.6719,566.8594 Q2957.8281,566.7813 2958.0313,566.7813 Q2958.3594,566.7813 2958.6094,567.0469 Q2958.875,567.2969 2958.875,567.6406 Q2958.875,567.9844 2958.5313,568.3906 Q2958.0313,568.9688 2957.2344,569.2969 Q2956.1563,569.75 2954.8594,569.75 Q2953.3438,569.75 2952.1406,569.125 Q2951.1563,568.625 2950.4688,567.5625 Q2949.7813,566.4844 2949.7813,565.2031 L2949.7813,564.0469 Q2949.7813,562.7188 2950.3906,561.5781 Q2951.0156,560.4219 2952.1094,559.8125 Q2953.2031,559.1875 2954.4375,559.1875 Q2955.1719,559.1875 2955.8125,559.3594 Q2956.4688,559.5156 2957.0156,559.875 Z " fill="#000000"/><text fill="#000000" font-family="sans-serif" font-size="14" lengthAdjust="spacing" textLength="105" x="2974.75" y="569.7285">PartyServiceImpl</text><line style="stroke:#181818;stroke-width:0.5;" x1="2884" x2="3138" y1="580" y2="580"/><line style="stroke:#181818;stroke-width:0.5;" x1="2884" x2="3138" y1="588" y2="588"/><ellipse cx="2894" cy="602.3047" fill="#84BE84" rx="3" ry="3" style="stroke:#038048;stroke-width:1.0;"/><text fill="#000000" font-family="sans-serif" font-size="14" lengthAdjust="spacing" textLength="113" x="2903" y="606.5332">restHeroes(): void</text><ellipse cx="2894" cy="619.9141" fill="#84BE84" rx="3" ry="3" style="stroke:#038048;stroke-width:1.0;"/><text fill="#000000" font-family="sans-serif" font-size="14" lengthAdjust="spacing" textLength="101" x="2903" y="624.1426">restParty(): void</text><ellipse cx="2894" cy="637.5234" fill="#84BE84" rx="3" ry="3" style="stroke:#038048;stroke-width:1.0;"/><text fill="#000000" font-family="sans-serif" font-size="14" lengthAdjust="spacing" textLength="104" x="2903" y="641.752">getParty(): Party</text><ellipse cx="2894" cy="655.1328" fill="#84BE84" rx="3" ry="3" style="stroke:#038048;stroke-width:1.0;"/><text fill="#000000" font-family="sans-serif" font-size="14" lengthAdjust="spacing" textLength="230" x="2903" y="659.3613">updatePartyMorale(int amount): void</text></g><!--class IPartyService--><g id="elem_IPartyService"><rect fill="#F1F1F1" height="48" id="IPartyService" rx="2.5" ry="2.5" style="stroke:#181818;stroke-width:0.5;" width="115" x="2953.5" y="341"/><ellipse cx="2968.5" cy="357" fill="#B4A7E5" rx="11" ry="11" style="stroke:#181818;stroke-width:1.0;"/><path d="M2969.4531,353.6406 L2969.4531,360.2969 L2971.1719,360.2969 Q2971.7813,360.2969 2972.0469,360.5313 Q2972.3125,360.7656 2972.3125,361.1563 Q2972.3125,361.5313 2972.0469,361.7656 Q2971.7813,362 2971.1719,362 L2966.0313,362 Q2965.4219,362 2965.1563,361.7656 Q2964.8906,361.5313 2964.8906,361.1406 Q2964.8906,360.7656 2965.1563,360.5313 Q2965.4219,360.2969 2966.0313,360.2969 L2967.75,360.2969 L2967.75,353.6406 L2966.0313,353.6406 Q2965.4219,353.6406 2965.1563,353.4063 Q2964.8906,353.1719 2964.8906,352.7813 Q2964.8906,352.4063 2965.1563,352.1719 Q2965.4219,351.9375 2966.0313,351.9375 L2971.1719,351.9375 Q2971.7813,351.9375 2972.0469,352.1719 Q2972.3125,352.4063 2972.3125,352.7813 Q2972.3125,353.1719 2972.0469,353.4063 Q2971.7813,353.6406 2971.1719,353.6406 L2969.4531,353.6406 Z " fill="#000000"/><text fill="#000000" font-family="sans-serif" font-size="14" font-style="italic" lengthAdjust="spacing" textLength="83" x="2982.5" y="362.7285">IPartyService</text><line style="stroke:#181818;stroke-width:0.5;" x1="2954.5" x2="3067.5" y1="373" y2="373"/><line style="stroke:#181818;stroke-width:0.5;" x1="2954.5" x2="3067.5" y1="381" y2="381"/></g><!--class RecoveryService--><g id="elem_RecoveryService"><rect codeLine="57" fill="#F1F1F1" height="65.6094" id="RecoveryService" rx="2.5" ry="2.5" style="stroke:#181818;stroke-width:0.5;" width="221" x="3174.5" y="574"/><ellipse cx="3227.25" cy="590" fill="#ADD1B2" rx="11" ry="11" style="stroke:#181818;stroke-width:1.0;"/><path d="M3230.0156,585.875 Q3230.1719,585.6563 3230.3594,585.5469 Q3230.5469,585.4375 3230.7656,585.4375 Q3231.1406,585.4375 3231.375,585.7031 Q3231.6094,585.9531 3231.6094,586.5625 L3231.6094,588.0156 Q3231.6094,588.625 3231.375,588.8906 Q3231.1406,589.1563 3230.7656,589.1563 Q3230.4219,589.1563 3230.2188,588.9531 Q3230.0156,588.7656 3229.9063,588.25 Q3229.8594,587.8906 3229.6719,587.7031 Q3229.3438,587.3281 3228.7344,587.1094 Q3228.125,586.8906 3227.5,586.8906 Q3226.7344,586.8906 3226.0938,587.2188 Q3225.4688,587.5469 3224.9688,588.2969 Q3224.4844,589.0469 3224.4844,590.0781 L3224.4844,591.1719 Q3224.4844,592.4063 3225.375,593.2344 Q3226.2656,594.0469 3227.8594,594.0469 Q3228.7969,594.0469 3229.4531,593.7969 Q3229.8438,593.6406 3230.2656,593.2031 Q3230.5313,592.9375 3230.6719,592.8594 Q3230.8281,592.7813 3231.0313,592.7813 Q3231.3594,592.7813 3231.6094,593.0469 Q3231.875,593.2969 3231.875,593.6406 Q3231.875,593.9844 3231.5313,594.3906 Q3231.0313,594.9688 3230.2344,595.2969 Q3229.1563,595.75 3227.8594,595.75 Q3226.3438,595.75 3225.1406,595.125 Q3224.1563,594.625 3223.4688,593.5625 Q3222.7813,592.4844 3222.7813,591.2031 L3222.7813,590.0469 Q3222.7813,588.7188 3223.3906,587.5781 Q3224.0156,586.4219 3225.1094,585.8125 Q3226.2031,585.1875 3227.4375,585.1875 Q3228.1719,585.1875 3228.8125,585.3594 Q3229.4688,585.5156 3230.0156,585.875 Z " fill="#000000"/><text fill="#000000" font-family="sans-serif" font-size="14" lengthAdjust="spacing" textLength="107" x="3247.75" y="595.7285">RecoveryService</text><line style="stroke:#181818;stroke-width:0.5;" x1="3175.5" x2="3394.5" y1="606" y2="606"/><line style="stroke:#181818;stroke-width:0.5;" x1="3175.5" x2="3394.5" y1="614" y2="614"/><ellipse cx="3185.5" cy="628.3047" fill="#84BE84" rx="3" ry="3" style="stroke:#038048;stroke-width:1.0;"/><text fill="#000000" font-family="sans-serif" font-size="14" lengthAdjust="spacing" textLength="195" x="3194.5" y="632.5332">recoverHeroesAndParty(): void</text></g><!--class IRecoveryService--><g id="elem_IRecoveryService"><rect fill="#F1F1F1" height="48" id="IRecoveryService" rx="2.5" ry="2.5" style="stroke:#181818;stroke-width:0.5;" width="141" x="3214.5" y="341"/><ellipse cx="3229.5" cy="357" fill="#B4A7E5" rx="11" ry="11" style="stroke:#181818;stroke-width:1.0;"/><path d="M3230.4531,353.6406 L3230.4531,360.2969 L3232.1719,360.2969 Q3232.7813,360.2969 3233.0469,360.5313 Q3233.3125,360.7656 3233.3125,361.1563 Q3233.3125,361.5313 3233.0469,361.7656 Q3232.7813,362 3232.1719,362 L3227.0313,362 Q3226.4219,362 3226.1563,361.7656 Q3225.8906,361.5313 3225.8906,361.1406 Q3225.8906,360.7656 3226.1563,360.5313 Q3226.4219,360.2969 3227.0313,360.2969 L3228.75,360.2969 L3228.75,353.6406 L3227.0313,353.6406 Q3226.4219,353.6406 3226.1563,353.4063 Q3225.8906,353.1719 3225.8906,352.7813 Q3225.8906,352.4063 3226.1563,352.1719 Q3226.4219,351.9375 3227.0313,351.9375 L3232.1719,351.9375 Q3232.7813,351.9375 3233.0469,352.1719 Q3233.3125,352.4063 3233.3125,352.7813 Q3233.3125,353.1719 3233.0469,353.4063 Q3232.7813,353.6406 3232.1719,353.6406 L3230.4531,353.6406 Z " fill="#000000"/><text fill="#000000" font-family="sans-serif" font-size="14" font-style="italic" lengthAdjust="spacing" textLength="109" x="3243.5" y="362.7285">IRecoveryService</text><line style="stroke:#181818;stroke-width:0.5;" x1="3215.5" x2="3354.5" y1="373" y2="373"/><line style="stroke:#181818;stroke-width:0.5;" x1="3215.5" x2="3354.5" y1="381" y2="381"/></g><!--class CombatStrategy--><g id="elem_CombatStrategy"><rect codeLine="80" fill="#F1F1F1" height="65.6094" id="CombatStrategy" rx="2.5" ry="2.5" style="stroke:#181818;stroke-width:0.5;" width="326" x="2386" y="849"/><ellipse cx="2493.75" cy="865" fill="#B4A7E5" rx="11" ry="11" style="stroke:#181818;stroke-width:1.0;"/><path d="M2494.7031,861.6406 L2494.7031,868.2969 L2496.4219,868.2969 Q2497.0313,868.2969 2497.2969,868.5313 Q2497.5625,868.7656 2497.5625,869.1563 Q2497.5625,869.5313 2497.2969,869.7656 Q2497.0313,870 2496.4219,870 L2491.2813,870 Q2490.6719,870 2490.4063,869.7656 Q2490.1406,869.5313 2490.1406,869.1406 Q2490.1406,868.7656 2490.4063,868.5313 Q2490.6719,868.2969 2491.2813,868.2969 L2493,868.2969 L2493,861.6406 L2491.2813,861.6406 Q2490.6719,861.6406 2490.4063,861.4063 Q2490.1406,861.1719 2490.1406,860.7813 Q2490.1406,860.4063 2490.4063,860.1719 Q2490.6719,859.9375 2491.2813,859.9375 L2496.4219,859.9375 Q2497.0313,859.9375 2497.2969,860.1719 Q2497.5625,860.4063 2497.5625,860.7813 Q2497.5625,861.1719 2497.2969,861.4063 Q2497.0313,861.6406 2496.4219,861.6406 L2494.7031,861.6406 Z " fill="#000000"/><text fill="#000000" font-family="sans-serif" font-size="14" font-style="italic" lengthAdjust="spacing" textLength="102" x="2514.25" y="870.7285">CombatStrategy</text><line style="stroke:#181818;stroke-width:0.5;" x1="2387" x2="2711" y1="881" y2="881"/><line style="stroke:#181818;stroke-width:0.5;" x1="2387" x2="2711" y1="889" y2="889"/><ellipse cx="2397" cy="903.3047" fill="#84BE84" rx="3" ry="3" style="stroke:#038048;stroke-width:1.0;"/><text fill="#000000" font-family="sans-serif" font-size="14" lengthAdjust="spacing" textLength="300" x="2406" y="907.5332">execute(hero: Hero, result: CombatResult): void</text></g><!--class MeleeCombatStrategy--><g id="elem_MeleeCombatStrategy"><rect codeLine="84" fill="#F1F1F1" height="65.6094" id="MeleeCombatStrategy" rx="2.5" ry="2.5" style="stroke:#181818;stroke-width:0.5;" width="326" x="2532" y="1124.5"/><ellipse cx="2620.75" cy="1140.5" fill="#ADD1B2" rx="11" ry="11" style="stroke:#181818;stroke-width:1.0;"/><path d="M2623.5156,1136.375 Q2623.6719,1136.1563 2623.8594,1136.0469 Q2624.0469,1135.9375 2624.2656,1135.9375 Q2624.6406,1135.9375 2624.875,1136.2031 Q2625.1094,1136.4531 2625.1094,1137.0625 L2625.1094,1138.5156 Q2625.1094,1139.125 2624.875,1139.3906 Q2624.6406,1139.6563 2624.2656,1139.6563 Q2623.9219,1139.6563 2623.7188,1139.4531 Q2623.5156,1139.2656 2623.4063,1138.75 Q2623.3594,1138.3906 2623.1719,1138.2031 Q2622.8438,1137.8281 2622.2344,1137.6094 Q2621.625,1137.3906 2621,1137.3906 Q2620.2344,1137.3906 2619.5938,1137.7188 Q2618.9688,1138.0469 2618.4688,1138.7969 Q2617.9844,1139.5469 2617.9844,1140.5781 L2617.9844,1141.6719 Q2617.9844,1142.9063 2618.875,1143.7344 Q2619.7656,1144.5469 2621.3594,1144.5469 Q2622.2969,1144.5469 2622.9531,1144.2969 Q2623.3438,1144.1406 2623.7656,1143.7031 Q2624.0313,1143.4375 2624.1719,1143.3594 Q2624.3281,1143.2813 2624.5313,1143.2813 Q2624.8594,1143.2813 2625.1094,1143.5469 Q2625.375,1143.7969 2625.375,1144.1406 Q2625.375,1144.4844 2625.0313,1144.8906 Q2624.5313,1145.4688 2623.7344,1145.7969 Q2622.6563,1146.25 2621.3594,1146.25 Q2619.8438,1146.25 2618.6406,1145.625 Q2617.6563,1145.125 2616.9688,1144.0625 Q2616.2813,1142.9844 2616.2813,1141.7031 L2616.2813,1140.5469 Q2616.2813,1139.2188 2616.8906,1138.0781 Q2617.5156,1136.9219 2618.6094,1136.3125 Q2619.7031,1135.6875 2620.9375,1135.6875 Q2621.6719,1135.6875 2622.3125,1135.8594 Q2622.9688,1136.0156 2623.5156,1136.375 Z " fill="#000000"/><text fill="#000000" font-family="sans-serif" font-size="14" lengthAdjust="spacing" textLength="140" x="2641.25" y="1146.2285">MeleeCombatStrategy</text><line style="stroke:#181818;stroke-width:0.5;" x1="2533" x2="2857" y1="1156.5" y2="1156.5"/><line style="stroke:#181818;stroke-width:0.5;" x1="2533" x2="2857" y1="1164.5" y2="1164.5"/><ellipse cx="2543" cy="1178.8047" fill="#84BE84" rx="3" ry="3" style="stroke:#038048;stroke-width:1.0;"/><text fill="#000000" font-family="sans-serif" font-size="14" lengthAdjust="spacing" textLength="300" x="2552" y="1183.0332">execute(hero: Hero, result: CombatResult): void</text></g><!--class SpellCombatStrategy--><g id="elem_SpellCombatStrategy"><rect codeLine="88" fill="#F1F1F1" height="65.6094" id="SpellCombatStrategy" rx="2.5" ry="2.5" style="stroke:#181818;stroke-width:0.5;" width="326" x="2171" y="1124.5"/><ellipse cx="2263.25" cy="1140.5" fill="#ADD1B2" rx="11" ry="11" style="stroke:#181818;stroke-width:1.0;"/><path d="M2266.0156,1136.375 Q2266.1719,1136.1563 2266.3594,1136.0469 Q2266.5469,1135.9375 2266.7656,1135.9375 Q2267.1406,1135.9375 2267.375,1136.2031 Q2267.6094,1136.4531 2267.6094,1137.0625 L2267.6094,1138.5156 Q2267.6094,1139.125 2267.375,1139.3906 Q2267.1406,1139.6563 2266.7656,1139.6563 Q2266.4219,1139.6563 2266.2188,1139.4531 Q2266.0156,1139.2656 2265.9063,1138.75 Q2265.8594,1138.3906 2265.6719,1138.2031 Q2265.3438,1137.8281 2264.7344,1137.6094 Q2264.125,1137.3906 2263.5,1137.3906 Q2262.7344,1137.3906 2262.0938,1137.7188 Q2261.4688,1138.0469 2260.9688,1138.7969 Q2260.4844,1139.5469 2260.4844,1140.5781 L2260.4844,1141.6719 Q2260.4844,1142.9063 2261.375,1143.7344 Q2262.2656,1144.5469 2263.8594,1144.5469 Q2264.7969,1144.5469 2265.4531,1144.2969 Q2265.8438,1144.1406 2266.2656,1143.7031 Q2266.5313,1143.4375 2266.6719,1143.3594 Q2266.8281,1143.2813 2267.0313,1143.2813 Q2267.3594,1143.2813 2267.6094,1143.5469 Q2267.875,1143.7969 2267.875,1144.1406 Q2267.875,1144.4844 2267.5313,1144.8906 Q2267.0313,1145.4688 2266.2344,1145.7969 Q2265.1563,1146.25 2263.8594,1146.25 Q2262.3438,1146.25 2261.1406,1145.625 Q2260.1563,1145.125 2259.4688,1144.0625 Q2258.7813,1142.9844 2258.7813,1141.7031 L2258.7813,1140.5469 Q2258.7813,1139.2188 2259.3906,1138.0781 Q2260.0156,1136.9219 2261.1094,1136.3125 Q2262.2031,1135.6875 2263.4375,1135.6875 Q2264.1719,1135.6875 2264.8125,1135.8594 Q2265.4688,1136.0156 2266.0156,1136.375 Z " fill="#000000"/><text fill="#000000" font-family="sans-serif" font-size="14" lengthAdjust="spacing" textLength="133" x="2283.75" y="1146.2285">SpellCombatStrategy</text><line style="stroke:#181818;stroke-width:0.5;" x1="2172" x2="2496" y1="1156.5" y2="1156.5"/><line style="stroke:#181818;stroke-width:0.5;" x1="2172" x2="2496" y1="1164.5" y2="1164.5"/><ellipse cx="2182" cy="1178.8047" fill="#84BE84" rx="3" ry="3" style="stroke:#038048;stroke-width:1.0;"/><text fill="#000000" font-family="sans-serif" font-size="14" lengthAdjust="spacing" textLength="300" x="2191" y="1183.0332">execute(hero: Hero, result: CombatResult): void</text></g><!--class ICombatService--><g id="elem_ICombatService"><rect codeLine="63" fill="#F1F1F1" height="65.6094" id="ICombatService" rx="2.5" ry="2.5" style="stroke:#181818;stroke-width:0.5;" width="598" x="1202" y="332"/><ellipse cx="1447.25" cy="348" fill="#B4A7E5" rx="11" ry="11" style="stroke:#181818;stroke-width:1.0;"/><path d="M1448.2031,344.6406 L1448.2031,351.2969 L1449.9219,351.2969 Q1450.5313,351.2969 1450.7969,351.5313 Q1451.0625,351.7656 1451.0625,352.1563 Q1451.0625,352.5313 1450.7969,352.7656 Q1450.5313,353 1449.9219,353 L1444.7813,353 Q1444.1719,353 1443.9063,352.7656 Q1443.6406,352.5313 1443.6406,352.1406 Q1443.6406,351.7656 1443.9063,351.5313 Q1444.1719,351.2969 1444.7813,351.2969 L1446.5,351.2969 L1446.5,344.6406 L1444.7813,344.6406 Q1444.1719,344.6406 1443.9063,344.4063 Q1443.6406,344.1719 1443.6406,343.7813 Q1443.6406,343.4063 1443.9063,343.1719 Q1444.1719,342.9375 1444.7813,342.9375 L1449.9219,342.9375 Q1450.5313,342.9375 1450.7969,343.1719 Q1451.0625,343.4063 1451.0625,343.7813 Q1451.0625,344.1719 1450.7969,344.4063 Q1450.5313,344.6406 1449.9219,344.6406 L1448.2031,344.6406 Z " fill="#000000"/><text fill="#000000" font-family="sans-serif" font-size="14" font-style="italic" lengthAdjust="spacing" textLength="99" x="1467.75" y="353.7285">ICombatService</text><line style="stroke:#181818;stroke-width:0.5;" x1="1203" x2="1799" y1="364" y2="364"/><line style="stroke:#181818;stroke-width:0.5;" x1="1203" x2="1799" y1="372" y2="372"/><ellipse cx="1213" cy="386.3047" fill="#84BE84" rx="3" ry="3" style="stroke:#038048;stroke-width:1.0;"/><text fill="#000000" font-family="sans-serif" font-size="14" lengthAdjust="spacing" textLength="572" x="1222" y="390.5332">processCombat(heroId: int, combatType: CombatType, combatResult: CombatResult): void</text></g><!--class IPartyService--><g id="elem_IPartyService"><rect codeLine="67" fill="#F1F1F1" height="118.4375" id="IPartyService" rx="2.5" ry="2.5" style="stroke:#181818;stroke-width:0.5;" width="256" x="1835" y="306"/><ellipse cx="1917.25" cy="322" fill="#B4A7E5" rx="11" ry="11" style="stroke:#181818;stroke-width:1.0;"/><path d="M1918.2031,318.6406 L1918.2031,325.2969 L1919.9219,325.2969 Q1920.5313,325.2969 1920.7969,325.5313 Q1921.0625,325.7656 1921.0625,326.1563 Q1921.0625,326.5313 1920.7969,326.7656 Q1920.5313,327 1919.9219,327 L1914.7813,327 Q1914.1719,327 1913.9063,326.7656 Q1913.6406,326.5313 1913.6406,326.1406 Q1913.6406,325.7656 1913.9063,325.5313 Q1914.1719,325.2969 1914.7813,325.2969 L1916.5,325.2969 L1916.5,318.6406 L1914.7813,318.6406 Q1914.1719,318.6406 1913.9063,318.4063 Q1913.6406,318.1719 1913.6406,317.7813 Q1913.6406,317.4063 1913.9063,317.1719 Q1914.1719,316.9375 1914.7813,316.9375 L1919.9219,316.9375 Q1920.5313,316.9375 1920.7969,317.1719 Q1921.0625,317.4063 1921.0625,317.7813 Q1921.0625,318.1719 1920.7969,318.4063 Q1920.5313,318.6406 1919.9219,318.6406 L1918.2031,318.6406 Z " fill="#000000"/><text fill="#000000" font-family="sans-serif" font-size="14" font-style="italic" lengthAdjust="spacing" textLength="83" x="1937.75" y="327.7285">IPartyService</text><line style="stroke:#181818;stroke-width:0.5;" x1="1836" x2="2090" y1="338" y2="338"/><line style="stroke:#181818;stroke-width:0.5;" x1="1836" x2="2090" y1="346" y2="346"/><ellipse cx="1846" cy="360.3047" fill="#84BE84" rx="3" ry="3" style="stroke:#038048;stroke-width:1.0;"/><text fill="#000000" font-family="sans-serif" font-size="14" lengthAdjust="spacing" textLength="113" x="1855" y="364.5332">restHeroes(): void</text><ellipse cx="1846" cy="377.9141" fill="#84BE84" rx="3" ry="3" style="stroke:#038048;stroke-width:1.0;"/><text fill="#000000" font-family="sans-serif" font-size="14" lengthAdjust="spacing" textLength="101" x="1855" y="382.1426">restParty(): void</text><text fill="#000000" font-family="sans-serif" font-size="14" lengthAdjust="spacing" textLength="104" x="1855" y="399.752">Party getParty();</text><text fill="#000000" font-family="sans-serif" font-size="14" lengthAdjust="spacing" textLength="230" x="1855" y="417.3613">void updatePartyMorale(int amount);</text></g><!--class IRecoveryService--><g id="elem_IRecoveryService"><rect codeLine="74" fill="#F1F1F1" height="65.6094" id="IRecoveryService" rx="2.5" ry="2.5" style="stroke:#181818;stroke-width:0.5;" width="221" x="1390.5" y="574"/><ellipse cx="1442.25" cy="590" fill="#B4A7E5" rx="11" ry="11" style="stroke:#181818;stroke-width:1.0;"/><path d="M1443.2031,586.6406 L1443.2031,593.2969 L1444.9219,593.2969 Q1445.5313,593.2969 1445.7969,593.5313 Q1446.0625,593.7656 1446.0625,594.1563 Q1446.0625,594.5313 1445.7969,594.7656 Q1445.5313,595 1444.9219,595 L1439.7813,595 Q1439.1719,595 1438.9063,594.7656 Q1438.6406,594.5313 1438.6406,594.1406 Q1438.6406,593.7656 1438.9063,593.5313 Q1439.1719,593.2969 1439.7813,593.2969 L1441.5,593.2969 L1441.5,586.6406 L1439.7813,586.6406 Q1439.1719,586.6406 1438.9063,586.4063 Q1438.6406,586.1719 1438.6406,585.7813 Q1438.6406,585.4063 1438.9063,585.1719 Q1439.1719,584.9375 1439.7813,584.9375 L1444.9219,584.9375 Q1445.5313,584.9375 1445.7969,585.1719 Q1446.0625,585.4063 1446.0625,585.7813 Q1446.0625,586.1719 1445.7969,586.4063 Q1445.5313,586.6406 1444.9219,586.6406 L1443.2031,586.6406 Z " fill="#000000"/><text fill="#000000" font-family="sans-serif" font-size="14" font-style="italic" lengthAdjust="spacing" textLength="109" x="1462.75" y="595.7285">IRecoveryService</text><line style="stroke:#181818;stroke-width:0.5;" x1="1391.5" x2="1610.5" y1="606" y2="606"/><line style="stroke:#181818;stroke-width:0.5;" x1="1391.5" x2="1610.5" y1="614" y2="614"/><ellipse cx="1401.5" cy="628.3047" fill="#84BE84" rx="3" ry="3" style="stroke:#038048;stroke-width:1.0;"/><text fill="#000000" font-family="sans-serif" font-size="14" lengthAdjust="spacing" textLength="195" x="1410.5" y="632.5332">recoverHeroesAndParty(): void</text></g><!--class CombatController--><g id="elem_CombatController"><rect codeLine="94" fill="#F1F1F1" height="83.2188" id="CombatController" rx="2.5" ry="2.5" style="stroke:#181818;stroke-width:0.5;" width="723" x="3524.5" y="323.5"/><ellipse cx="3826.25" cy="339.5" fill="#ADD1B2" rx="11" ry="11" style="stroke:#181818;stroke-width:1.0;"/><path d="M3829.0156,335.375 Q3829.1719,335.1563 3829.3594,335.0469 Q3829.5469,334.9375 3829.7656,334.9375 Q3830.1406,334.9375 3830.375,335.2031 Q3830.6094,335.4531 3830.6094,336.0625 L3830.6094,337.5156 Q3830.6094,338.125 3830.375,338.3906 Q3830.1406,338.6563 3829.7656,338.6563 Q3829.4219,338.6563 3829.2188,338.4531 Q3829.0156,338.2656 3828.9063,337.75 Q3828.8594,337.3906 3828.6719,337.2031 Q3828.3438,336.8281 3827.7344,336.6094 Q3827.125,336.3906 3826.5,336.3906 Q3825.7344,336.3906 3825.0938,336.7188 Q3824.4688,337.0469 3823.9688,337.7969 Q3823.4844,338.5469 3823.4844,339.5781 L3823.4844,340.6719 Q3823.4844,341.9063 3824.375,342.7344 Q3825.2656,343.5469 3826.8594,343.5469 Q3827.7969,343.5469 3828.4531,343.2969 Q3828.8438,343.1406 3829.2656,342.7031 Q3829.5313,342.4375 3829.6719,342.3594 Q3829.8281,342.2813 3830.0313,342.2813 Q3830.3594,342.2813 3830.6094,342.5469 Q3830.875,342.7969 3830.875,343.1406 Q3830.875,343.4844 3830.5313,343.8906 Q3830.0313,344.4688 3829.2344,344.7969 Q3828.1563,345.25 3826.8594,345.25 Q3825.3438,345.25 3824.1406,344.625 Q3823.1563,344.125 3822.4688,343.0625 Q3821.7813,341.9844 3821.7813,340.7031 L3821.7813,339.5469 Q3821.7813,338.2188 3822.3906,337.0781 Q3823.0156,335.9219 3824.1094,335.3125 Q3825.2031,334.6875 3826.4375,334.6875 Q3827.1719,334.6875 3827.8125,334.8594 Q3828.4688,335.0156 3829.0156,335.375 Z " fill="#000000"/><text fill="#000000" font-family="sans-serif" font-size="14" lengthAdjust="spacing" textLength="111" x="3846.75" y="345.2285">CombatController</text><line style="stroke:#181818;stroke-width:0.5;" x1="3525.5" x2="4246.5" y1="355.5" y2="355.5"/><line style="stroke:#181818;stroke-width:0.5;" x1="3525.5" x2="4246.5" y1="363.5" y2="363.5"/><ellipse cx="3535.5" cy="377.8047" fill="#84BE84" rx="3" ry="3" style="stroke:#038048;stroke-width:1.0;"/><text fill="#000000" font-family="sans-serif" font-size="14" lengthAdjust="spacing" textLength="697" x="3544.5" y="382.0332">getCombat(heroId: Integer, combatType: CombatType, combatResult: CombatResult): ResponseEntity&lt;String&gt;</text><ellipse cx="3535.5" cy="395.4141" fill="#84BE84" rx="3" ry="3" style="stroke:#038048;stroke-width:1.0;"/><text fill="#000000" font-family="sans-serif" font-size="14" lengthAdjust="spacing" textLength="283" x="3544.5" y="399.6426">getParty(): ResponseEntity&lt;PartyResponse&gt;</text></g><!--class PartyResponse--><g id="elem_PartyResponse"><rect codeLine="100" fill="#F1F1F1" height="206.4844" id="PartyResponse" rx="2.5" ry="2.5" style="stroke:#181818;stroke-width:0.5;" width="284" x="4475" y="262"/><ellipse cx="4564.25" cy="278" fill="#ADD1B2" rx="11" ry="11" style="stroke:#181818;stroke-width:1.0;"/><path d="M4567.0156,273.875 Q4567.1719,273.6563 4567.3594,273.5469 Q4567.5469,273.4375 4567.7656,273.4375 Q4568.1406,273.4375 4568.375,273.7031 Q4568.6094,273.9531 4568.6094,274.5625 L4568.6094,276.0156 Q4568.6094,276.625 4568.375,276.8906 Q4568.1406,277.1563 4567.7656,277.1563 Q4567.4219,277.1563 4567.2188,276.9531 Q4567.0156,276.7656 4566.9063,276.25 Q4566.8594,275.8906 4566.6719,275.7031 Q4566.3438,275.3281 4565.7344,275.1094 Q4565.125,274.8906 4564.5,274.8906 Q4563.7344,274.8906 4563.0938,275.2188 Q4562.4688,275.5469 4561.9688,276.2969 Q4561.4844,277.0469 4561.4844,278.0781 L4561.4844,279.1719 Q4561.4844,280.4063 4562.375,281.2344 Q4563.2656,282.0469 4564.8594,282.0469 Q4565.7969,282.0469 4566.4531,281.7969 Q4566.8438,281.6406 4567.2656,281.2031 Q4567.5313,280.9375 4567.6719,280.8594 Q4567.8281,280.7813 4568.0313,280.7813 Q4568.3594,280.7813 4568.6094,281.0469 Q4568.875,281.2969 4568.875,281.6406 Q4568.875,281.9844 4568.5313,282.3906 Q4568.0313,282.9688 4567.2344,283.2969 Q4566.1563,283.75 4564.8594,283.75 Q4563.3438,283.75 4562.1406,283.125 Q4561.1563,282.625 4560.4688,281.5625 Q4559.7813,280.4844 4559.7813,279.2031 L4559.7813,278.0469 Q4559.7813,276.7188 4560.3906,275.5781 Q4561.0156,274.4219 4562.1094,273.8125 Q4563.2031,273.1875 4564.4375,273.1875 Q4565.1719,273.1875 4565.8125,273.3594 Q4566.4688,273.5156 4567.0156,273.875 Z " fill="#000000"/><text fill="#000000" font-family="sans-serif" font-size="14" lengthAdjust="spacing" textLength="97" x="4584.75" y="283.7285">PartyResponse</text><line style="stroke:#181818;stroke-width:0.5;" x1="4476" x2="4758" y1="294" y2="294"/><ellipse cx="4486" cy="308.3047" fill="none" rx="3" ry="3" style="stroke:#038048;stroke-width:1.0;"/><text fill="#000000" font-family="sans-serif" font-size="14" lengthAdjust="spacing" textLength="184" x="4495" y="312.5332">heroes: List&lt;HeroResponse&gt;</text><ellipse cx="4486" cy="325.9141" fill="none" rx="3" ry="3" style="stroke:#038048;stroke-width:1.0;"/><text fill="#000000" font-family="sans-serif" font-size="14" lengthAdjust="spacing" textLength="66" x="4495" y="330.1426">morale: int</text><ellipse cx="4486" cy="343.5234" fill="none" rx="3" ry="3" style="stroke:#038048;stroke-width:1.0;"/><text fill="#000000" font-family="sans-serif" font-size="14" lengthAdjust="spacing" textLength="99" x="4495" y="347.752">timestamp: long</text><line style="stroke:#181818;stroke-width:0.5;" x1="4476" x2="4758" y1="354.8281" y2="354.8281"/><ellipse cx="4486" cy="369.1328" fill="#84BE84" rx="3" ry="3" style="stroke:#038048;stroke-width:1.0;"/><text fill="#000000" font-family="sans-serif" font-size="14" lengthAdjust="spacing" textLength="215" x="4495" y="373.3613">getHeroes(): List&lt;HeroResponse&gt;</text><ellipse cx="4486" cy="386.7422" fill="#84BE84" rx="3" ry="3" style="stroke:#038048;stroke-width:1.0;"/><text fill="#000000" font-family="sans-serif" font-size="14" lengthAdjust="spacing" textLength="258" x="4495" y="390.9707">setHeroes(heroes: List&lt;HeroResponse&gt;)</text><ellipse cx="4486" cy="404.3516" fill="#84BE84" rx="3" ry="3" style="stroke:#038048;stroke-width:1.0;"/><text fill="#000000" font-family="sans-serif" font-size="14" lengthAdjust="spacing" textLength="96" x="4495" y="408.5801">getMorale(): int</text><ellipse cx="4486" cy="421.9609" fill="#84BE84" rx="3" ry="3" style="stroke:#038048;stroke-width:1.0;"/><text fill="#000000" font-family="sans-serif" font-size="14" lengthAdjust="spacing" textLength="138" x="4495" y="426.1895">setMorale(morale: int)</text><ellipse cx="4486" cy="439.5703" fill="#84BE84" rx="3" ry="3" style="stroke:#038048;stroke-width:1.0;"/><text fill="#000000" font-family="sans-serif" font-size="14" lengthAdjust="spacing" textLength="134" x="4495" y="443.7988">getTimestamp(): long</text><ellipse cx="4486" cy="457.1797" fill="#84BE84" rx="3" ry="3" style="stroke:#038048;stroke-width:1.0;"/><text fill="#000000" font-family="sans-serif" font-size="14" lengthAdjust="spacing" textLength="197" x="4495" y="461.4082">setTimestamp(timestamp: long)</text></g><!--class HeroResponse--><g id="elem_HeroResponse"><rect codeLine="111" fill="#F1F1F1" height="206.4844" id="HeroResponse" rx="2.5" ry="2.5" style="stroke:#181818;stroke-width:0.5;" width="157" x="4282.5" y="262"/><ellipse cx="4311.45" cy="278" fill="#ADD1B2" rx="11" ry="11" style="stroke:#181818;stroke-width:1.0;"/><path d="M4314.2156,273.875 Q4314.3719,273.6563 4314.5594,273.5469 Q4314.7469,273.4375 4314.9656,273.4375 Q4315.3406,273.4375 4315.575,273.7031 Q4315.8094,273.9531 4315.8094,274.5625 L4315.8094,276.0156 Q4315.8094,276.625 4315.575,276.8906 Q4315.3406,277.1563 4314.9656,277.1563 Q4314.6219,277.1563 4314.4188,276.9531 Q4314.2156,276.7656 4314.1063,276.25 Q4314.0594,275.8906 4313.8719,275.7031 Q4313.5438,275.3281 4312.9344,275.1094 Q4312.325,274.8906 4311.7,274.8906 Q4310.9344,274.8906 4310.2938,275.2188 Q4309.6688,275.5469 4309.1688,276.2969 Q4308.6844,277.0469 4308.6844,278.0781 L4308.6844,279.1719 Q4308.6844,280.4063 4309.575,281.2344 Q4310.4656,282.0469 4312.0594,282.0469 Q4312.9969,282.0469 4313.6531,281.7969 Q4314.0438,281.6406 4314.4656,281.2031 Q4314.7313,280.9375 4314.8719,280.8594 Q4315.0281,280.7813 4315.2313,280.7813 Q4315.5594,280.7813 4315.8094,281.0469 Q4316.075,281.2969 4316.075,281.6406 Q4316.075,281.9844 4315.7313,282.3906 Q4315.2313,282.9688 4314.4344,283.2969 Q4313.3563,283.75 4312.0594,283.75 Q4310.5438,283.75 4309.3406,283.125 Q4308.3563,282.625 4307.6688,281.5625 Q4306.9813,280.4844 4306.9813,279.2031 L4306.9813,278.0469 Q4306.9813,276.7188 4307.5906,275.5781 Q4308.2156,274.4219 4309.3094,273.8125 Q4310.4031,273.1875 4311.6375,273.1875 Q4312.3719,273.1875 4313.0125,273.3594 Q4313.6688,273.5156 4314.2156,273.875 Z " fill="#000000"/><text fill="#000000" font-family="sans-serif" font-size="14" lengthAdjust="spacing" textLength="94" x="4328.55" y="283.7285">HeroResponse</text><line style="stroke:#181818;stroke-width:0.5;" x1="4283.5" x2="4438.5" y1="294" y2="294"/><ellipse cx="4293.5" cy="308.3047" fill="none" rx="3" ry="3" style="stroke:#038048;stroke-width:1.0;"/><text fill="#000000" font-family="sans-serif" font-size="14" lengthAdjust="spacing" textLength="34" x="4302.5" y="312.5332">id: int</text><ellipse cx="4293.5" cy="325.9141" fill="none" rx="3" ry="3" style="stroke:#038048;stroke-width:1.0;"/><text fill="#000000" font-family="sans-serif" font-size="14" lengthAdjust="spacing" textLength="62" x="4302.5" y="330.1426">health: int</text><ellipse cx="4293.5" cy="343.5234" fill="none" rx="3" ry="3" style="stroke:#038048;stroke-width:1.0;"/><text fill="#000000" font-family="sans-serif" font-size="14" lengthAdjust="spacing" textLength="58" x="4302.5" y="347.752">mana: int</text><line style="stroke:#181818;stroke-width:0.5;" x1="4283.5" x2="4438.5" y1="354.8281" y2="354.8281"/><ellipse cx="4293.5" cy="369.1328" fill="#84BE84" rx="3" ry="3" style="stroke:#038048;stroke-width:1.0;"/><text fill="#000000" font-family="sans-serif" font-size="14" lengthAdjust="spacing" textLength="64" x="4302.5" y="373.3613">getId(): int</text><ellipse cx="4293.5" cy="386.7422" fill="#84BE84" rx="3" ry="3" style="stroke:#038048;stroke-width:1.0;"/><text fill="#000000" font-family="sans-serif" font-size="14" lengthAdjust="spacing" textLength="74" x="4302.5" y="390.9707">setId(id: int)</text><ellipse cx="4293.5" cy="404.3516" fill="#84BE84" rx="3" ry="3" style="stroke:#038048;stroke-width:1.0;"/><text fill="#000000" font-family="sans-serif" font-size="14" lengthAdjust="spacing" textLength="93" x="4302.5" y="408.5801">getHealth(): int</text><ellipse cx="4293.5" cy="421.9609" fill="#84BE84" rx="3" ry="3" style="stroke:#038048;stroke-width:1.0;"/><text fill="#000000" font-family="sans-serif" font-size="14" lengthAdjust="spacing" textLength="131" x="4302.5" y="426.1895">setHealth(health: int)</text><ellipse cx="4293.5" cy="439.5703" fill="#84BE84" rx="3" ry="3" style="stroke:#038048;stroke-width:1.0;"/><text fill="#000000" font-family="sans-serif" font-size="14" lengthAdjust="spacing" textLength="88" x="4302.5" y="443.7988">getMana(): int</text><ellipse cx="4293.5" cy="457.1797" fill="#84BE84" rx="3" ry="3" style="stroke:#038048;stroke-width:1.0;"/><text fill="#000000" font-family="sans-serif" font-size="14" lengthAdjust="spacing" textLength="122" x="4302.5" y="461.4082">setMana(mana: int)</text></g><!--class PartyMapper--><g id="elem_PartyMapper"><rect codeLine="125" fill="#F1F1F1" height="65.6094" id="PartyMapper" rx="2.5" ry="2.5" style="stroke:#181818;stroke-width:0.5;" width="283" x="3744.5" y="574"/><ellipse cx="3841.25" cy="590" fill="#ADD1B2" rx="11" ry="11" style="stroke:#181818;stroke-width:1.0;"/><path d="M3844.0156,585.875 Q3844.1719,585.6563 3844.3594,585.5469 Q3844.5469,585.4375 3844.7656,585.4375 Q3845.1406,585.4375 3845.375,585.7031 Q3845.6094,585.9531 3845.6094,586.5625 L3845.6094,588.0156 Q3845.6094,588.625 3845.375,588.8906 Q3845.1406,589.1563 3844.7656,589.1563 Q3844.4219,589.1563 3844.2188,588.9531 Q3844.0156,588.7656 3843.9063,588.25 Q3843.8594,587.8906 3843.6719,587.7031 Q3843.3438,587.3281 3842.7344,587.1094 Q3842.125,586.8906 3841.5,586.8906 Q3840.7344,586.8906 3840.0938,587.2188 Q3839.4688,587.5469 3838.9688,588.2969 Q3838.4844,589.0469 3838.4844,590.0781 L3838.4844,591.1719 Q3838.4844,592.4063 3839.375,593.2344 Q3840.2656,594.0469 3841.8594,594.0469 Q3842.7969,594.0469 3843.4531,593.7969 Q3843.8438,593.6406 3844.2656,593.2031 Q3844.5313,592.9375 3844.6719,592.8594 Q3844.8281,592.7813 3845.0313,592.7813 Q3845.3594,592.7813 3845.6094,593.0469 Q3845.875,593.2969 3845.875,593.6406 Q3845.875,593.9844 3845.5313,594.3906 Q3845.0313,594.9688 3844.2344,595.2969 Q3843.1563,595.75 3841.8594,595.75 Q3840.3438,595.75 3839.1406,595.125 Q3838.1563,594.625 3837.4688,593.5625 Q3836.7813,592.4844 3836.7813,591.2031 L3836.7813,590.0469 Q3836.7813,588.7188 3837.3906,587.5781 Q3838.0156,586.4219 3839.1094,585.8125 Q3840.2031,585.1875 3841.4375,585.1875 Q3842.1719,585.1875 3842.8125,585.3594 Q3843.4688,585.5156 3844.0156,585.875 Z " fill="#000000"/><text fill="#000000" font-family="sans-serif" font-size="14" lengthAdjust="spacing" textLength="81" x="3861.75" y="595.7285">PartyMapper</text><line style="stroke:#181818;stroke-width:0.5;" x1="3745.5" x2="4026.5" y1="606" y2="606"/><line style="stroke:#181818;stroke-width:0.5;" x1="3745.5" x2="4026.5" y1="614" y2="614"/><ellipse cx="3755.5" cy="628.3047" fill="#84BE84" rx="3" ry="3" style="stroke:#038048;stroke-width:1.0;"/><text fill="#000000" font-family="sans-serif" font-size="14" lengthAdjust="spacing" textLength="257" x="3764.5" y="632.5332">toPartyResponse(Party): PartyResponse</text></g><!--class GlobalExceptionHandler--><g id="elem_GlobalExceptionHandler"><rect codeLine="132" fill="#F1F1F1" height="118.4375" id="GlobalExceptionHandler" rx="2.5" ry="2.5" style="stroke:#181818;stroke-width:0.5;" width="1075" x="70.5" y="306"/><ellipse cx="528.25" cy="322" fill="#ADD1B2" rx="11" ry="11" style="stroke:#181818;stroke-width:1.0;"/><path d="M531.0156,317.875 Q531.1719,317.6563 531.3594,317.5469 Q531.5469,317.4375 531.7656,317.4375 Q532.1406,317.4375 532.375,317.7031 Q532.6094,317.9531 532.6094,318.5625 L532.6094,320.0156 Q532.6094,320.625 532.375,320.8906 Q532.1406,321.1563 531.7656,321.1563 Q531.4219,321.1563 531.2188,320.9531 Q531.0156,320.7656 530.9063,320.25 Q530.8594,319.8906 530.6719,319.7031 Q530.3438,319.3281 529.7344,319.1094 Q529.125,318.8906 528.5,318.8906 Q527.7344,318.8906 527.0938,319.2188 Q526.4688,319.5469 525.9688,320.2969 Q525.4844,321.0469 525.4844,322.0781 L525.4844,323.1719 Q525.4844,324.4063 526.375,325.2344 Q527.2656,326.0469 528.8594,326.0469 Q529.7969,326.0469 530.4531,325.7969 Q530.8438,325.6406 531.2656,325.2031 Q531.5313,324.9375 531.6719,324.8594 Q531.8281,324.7813 532.0313,324.7813 Q532.3594,324.7813 532.6094,325.0469 Q532.875,325.2969 532.875,325.6406 Q532.875,325.9844 532.5313,326.3906 Q532.0313,326.9688 531.2344,327.2969 Q530.1563,327.75 528.8594,327.75 Q527.3438,327.75 526.1406,327.125 Q525.1563,326.625 524.4688,325.5625 Q523.7813,324.4844 523.7813,323.2031 L523.7813,322.0469 Q523.7813,320.7188 524.3906,319.5781 Q525.0156,318.4219 526.1094,317.8125 Q527.2031,317.1875 528.4375,317.1875 Q529.1719,317.1875 529.8125,317.3594 Q530.4688,317.5156 531.0156,317.875 Z " fill="#000000"/><text fill="#000000" font-family="sans-serif" font-size="14" lengthAdjust="spacing" textLength="151" x="548.75" y="327.7285">GlobalExceptionHandler</text><line style="stroke:#181818;stroke-width:0.5;" x1="71.5" x2="1144.5" y1="338" y2="338"/><line style="stroke:#181818;stroke-width:0.5;" x1="71.5" x2="1144.5" y1="346" y2="346"/><ellipse cx="81.5" cy="360.3047" fill="#84BE84" rx="3" ry="3" style="stroke:#038048;stroke-width:1.0;"/><text fill="#000000" font-family="sans-serif" font-size="14" lengthAdjust="spacing" textLength="1049" x="90.5" y="364.5332">handleMethodArgumentNotValid(MethodArgumentNotValidException ex, HttpHeaders headers, HttpStatusCode status, WebRequest request): ResponseEntity&lt;Object&gt;</text><ellipse cx="81.5" cy="377.9141" fill="#84BE84" rx="3" ry="3" style="stroke:#038048;stroke-width:1.0;"/><text fill="#000000" font-family="sans-serif" font-size="14" lengthAdjust="spacing" textLength="836" x="90.5" y="382.1426">handleMethodArgumentTypeMismatch(MethodArgumentTypeMismatchException ex, WebRequest request): ResponseEntity&lt;Object&gt;</text><ellipse cx="81.5" cy="395.5234" fill="#84BE84" rx="3" ry="3" style="stroke:#038048;stroke-width:1.0;"/><text fill="#000000" font-family="sans-serif" font-size="14" lengthAdjust="spacing" textLength="547" x="90.5" y="399.752">handleIllegalArgumentException(IllegalArgumentException ex): ResponseEntity&lt;String&gt;</text><ellipse cx="81.5" cy="413.1328" fill="#84BE84" rx="3" ry="3" style="stroke:#038048;stroke-width:1.0;"/><text fill="#000000" font-family="sans-serif" font-size="14" lengthAdjust="spacing" textLength="708" x="90.5" y="417.3613">handleHttpMessageNotReadable(HttpMessageNotReadableException ex): ResponseEntity&lt;Map&lt;String, String&gt;&gt;</text></g><!--class HeroResponse--><g id="elem_HeroResponse"><rect fill="#F1F1F1" height="48" id="HeroResponse" rx="2.5" ry="2.5" style="stroke:#181818;stroke-width:0.5;" width="126" x="5766" y="583"/><ellipse cx="5781" cy="599" fill="#ADD1B2" rx="11" ry="11" style="stroke:#181818;stroke-width:1.0;"/><path d="M5783.7656,594.875 Q5783.9219,594.6563 5784.1094,594.5469 Q5784.2969,594.4375 5784.5156,594.4375 Q5784.8906,594.4375 5785.125,594.7031 Q5785.3594,594.9531 5785.3594,595.5625 L5785.3594,597.0156 Q5785.3594,597.625 5785.125,597.8906 Q5784.8906,598.1563 5784.5156,598.1563 Q5784.1719,598.1563 5783.9688,597.9531 Q5783.7656,597.7656 5783.6563,597.25 Q5783.6094,596.8906 5783.4219,596.7031 Q5783.0938,596.3281 5782.4844,596.1094 Q5781.875,595.8906 5781.25,595.8906 Q5780.4844,595.8906 5779.8438,596.2188 Q5779.2188,596.5469 5778.7188,597.2969 Q5778.2344,598.0469 5778.2344,599.0781 L5778.2344,600.1719 Q5778.2344,601.4063 5779.125,602.2344 Q5780.0156,603.0469 5781.6094,603.0469 Q5782.5469,603.0469 5783.2031,602.7969 Q5783.5938,602.6406 5784.0156,602.2031 Q5784.2813,601.9375 5784.4219,601.8594 Q5784.5781,601.7813 5784.7813,601.7813 Q5785.1094,601.7813 5785.3594,602.0469 Q5785.625,602.2969 5785.625,602.6406 Q5785.625,602.9844 5785.2813,603.3906 Q5784.7813,603.9688 5783.9844,604.2969 Q5782.9063,604.75 5781.6094,604.75 Q5780.0938,604.75 5778.8906,604.125 Q5777.9063,603.625 5777.2188,602.5625 Q5776.5313,601.4844 5776.5313,600.2031 L5776.5313,599.0469 Q5776.5313,597.7188 5777.1406,596.5781 Q5777.7656,595.4219 5778.8594,594.8125 Q5779.9531,594.1875 5781.1875,594.1875 Q5781.9219,594.1875 5782.5625,594.3594 Q5783.2188,594.5156 5783.7656,594.875 Z " fill="#000000"/><text fill="#000000" font-family="sans-serif" font-size="14" lengthAdjust="spacing" textLength="94" x="5795" y="604.7285">HeroResponse</text><line style="stroke:#181818;stroke-width:0.5;" x1="5767" x2="5891" y1="615" y2="615"/><line style="stroke:#181818;stroke-width:0.5;" x1="5767" x2="5891" y1="623" y2="623"/></g><!--class IPartyService--><g id="elem_IPartyService"><rect fill="#F1F1F1" height="48" id="IPartyService" rx="2.5" ry="2.5" style="stroke:#181818;stroke-width:0.5;" width="115" x="5307.5" y="858"/><ellipse cx="5322.5" cy="874" fill="#ADD1B2" rx="11" ry="11" style="stroke:#181818;stroke-width:1.0;"/><path d="M5325.2656,869.875 Q5325.4219,869.6563 5325.6094,869.5469 Q5325.7969,869.4375 5326.0156,869.4375 Q5326.3906,869.4375 5326.625,869.7031 Q5326.8594,869.9531 5326.8594,870.5625 L5326.8594,872.0156 Q5326.8594,872.625 5326.625,872.8906 Q5326.3906,873.1563 5326.0156,873.1563 Q5325.6719,873.1563 5325.4688,872.9531 Q5325.2656,872.7656 5325.1563,872.25 Q5325.1094,871.8906 5324.9219,871.7031 Q5324.5938,871.3281 5323.9844,871.1094 Q5323.375,870.8906 5322.75,870.8906 Q5321.9844,870.8906 5321.3438,871.2188 Q5320.7188,871.5469 5320.2188,872.2969 Q5319.7344,873.0469 5319.7344,874.0781 L5319.7344,875.1719 Q5319.7344,876.4063 5320.625,877.2344 Q5321.5156,878.0469 5323.1094,878.0469 Q5324.0469,878.0469 5324.7031,877.7969 Q5325.0938,877.6406 5325.5156,877.2031 Q5325.7813,876.9375 5325.9219,876.8594 Q5326.0781,876.7813 5326.2813,876.7813 Q5326.6094,876.7813 5326.8594,877.0469 Q5327.125,877.2969 5327.125,877.6406 Q5327.125,877.9844 5326.7813,878.3906 Q5326.2813,878.9688 5325.4844,879.2969 Q5324.4063,879.75 5323.1094,879.75 Q5321.5938,879.75 5320.3906,879.125 Q5319.4063,878.625 5318.7188,877.5625 Q5318.0313,876.4844 5318.0313,875.2031 L5318.0313,874.0469 Q5318.0313,872.7188 5318.6406,871.5781 Q5319.2656,870.4219 5320.3594,869.8125 Q5321.4531,869.1875 5322.6875,869.1875 Q5323.4219,869.1875 5324.0625,869.3594 Q5324.7188,869.5156 5325.2656,869.875 Z " fill="#000000"/><text fill="#000000" font-family="sans-serif" font-size="14" lengthAdjust="spacing" textLength="83" x="5336.5" y="879.7285">IPartyService</text><line style="stroke:#181818;stroke-width:0.5;" x1="5308.5" x2="5421.5" y1="890" y2="890"/><line style="stroke:#181818;stroke-width:0.5;" x1="5308.5" x2="5421.5" y1="898" y2="898"/></g><!--class ICombatService--><g id="elem_ICombatService"><rect fill="#F1F1F1" height="48" id="ICombatService" rx="2.5" ry="2.5" style="stroke:#181818;stroke-width:0.5;" width="131" x="5307.5" y="583"/><ellipse cx="5322.5" cy="599" fill="#ADD1B2" rx="11" ry="11" style="stroke:#181818;stroke-width:1.0;"/><path d="M5325.2656,594.875 Q5325.4219,594.6563 5325.6094,594.5469 Q5325.7969,594.4375 5326.0156,594.4375 Q5326.3906,594.4375 5326.625,594.7031 Q5326.8594,594.9531 5326.8594,595.5625 L5326.8594,597.0156 Q5326.8594,597.625 5326.625,597.8906 Q5326.3906,598.1563 5326.0156,598.1563 Q5325.6719,598.1563 5325.4688,597.9531 Q5325.2656,597.7656 5325.1563,597.25 Q5325.1094,596.8906 5324.9219,596.7031 Q5324.5938,596.3281 5323.9844,596.1094 Q5323.375,595.8906 5322.75,595.8906 Q5321.9844,595.8906 5321.3438,596.2188 Q5320.7188,596.5469 5320.2188,597.2969 Q5319.7344,598.0469 5319.7344,599.0781 L5319.7344,600.1719 Q5319.7344,601.4063 5320.625,602.2344 Q5321.5156,603.0469 5323.1094,603.0469 Q5324.0469,603.0469 5324.7031,602.7969 Q5325.0938,602.6406 5325.5156,602.2031 Q5325.7813,601.9375 5325.9219,601.8594 Q5326.0781,601.7813 5326.2813,601.7813 Q5326.6094,601.7813 5326.8594,602.0469 Q5327.125,602.2969 5327.125,602.6406 Q5327.125,602.9844 5326.7813,603.3906 Q5326.2813,603.9688 5325.4844,604.2969 Q5324.4063,604.75 5323.1094,604.75 Q5321.5938,604.75 5320.3906,604.125 Q5319.4063,603.625 5318.7188,602.5625 Q5318.0313,601.4844 5318.0313,600.2031 L5318.0313,599.0469 Q5318.0313,597.7188 5318.6406,596.5781 Q5319.2656,595.4219 5320.3594,594.8125 Q5321.4531,594.1875 5322.6875,594.1875 Q5323.4219,594.1875 5324.0625,594.3594 Q5324.7188,594.5156 5325.2656,594.875 Z " fill="#000000"/><text fill="#000000" font-family="sans-serif" font-size="14" lengthAdjust="spacing" textLength="99" x="5336.5" y="604.7285">ICombatService</text><line style="stroke:#181818;stroke-width:0.5;" x1="5308.5" x2="5437.5" y1="615" y2="615"/><line style="stroke:#181818;stroke-width:0.5;" x1="5308.5" x2="5437.5" y1="623" y2="623"/></g><!--class IRecoveryService--><g id="elem_IRecoveryService"><rect fill="#F1F1F1" height="48" id="IRecoveryService" rx="2.5" ry="2.5" style="stroke:#181818;stroke-width:0.5;" width="142" x="5474" y="583"/><ellipse cx="5489" cy="599" fill="#ADD1B2" rx="11" ry="11" style="stroke:#181818;stroke-width:1.0;"/><path d="M5491.7656,594.875 Q5491.9219,594.6563 5492.1094,594.5469 Q5492.2969,594.4375 5492.5156,594.4375 Q5492.8906,594.4375 5493.125,594.7031 Q5493.3594,594.9531 5493.3594,595.5625 L5493.3594,597.0156 Q5493.3594,597.625 5493.125,597.8906 Q5492.8906,598.1563 5492.5156,598.1563 Q5492.1719,598.1563 5491.9688,597.9531 Q5491.7656,597.7656 5491.6563,597.25 Q5491.6094,596.8906 5491.4219,596.7031 Q5491.0938,596.3281 5490.4844,596.1094 Q5489.875,595.8906 5489.25,595.8906 Q5488.4844,595.8906 5487.8438,596.2188 Q5487.2188,596.5469 5486.7188,597.2969 Q5486.2344,598.0469 5486.2344,599.0781 L5486.2344,600.1719 Q5486.2344,601.4063 5487.125,602.2344 Q5488.0156,603.0469 5489.6094,603.0469 Q5490.5469,603.0469 5491.2031,602.7969 Q5491.5938,602.6406 5492.0156,602.2031 Q5492.2813,601.9375 5492.4219,601.8594 Q5492.5781,601.7813 5492.7813,601.7813 Q5493.1094,601.7813 5493.3594,602.0469 Q5493.625,602.2969 5493.625,602.6406 Q5493.625,602.9844 5493.2813,603.3906 Q5492.7813,603.9688 5491.9844,604.2969 Q5490.9063,604.75 5489.6094,604.75 Q5488.0938,604.75 5486.8906,604.125 Q5485.9063,603.625 5485.2188,602.5625 Q5484.5313,601.4844 5484.5313,600.2031 L5484.5313,599.0469 Q5484.5313,597.7188 5485.1406,596.5781 Q5485.7656,595.4219 5486.8594,594.8125 Q5487.9531,594.1875 5489.1875,594.1875 Q5489.9219,594.1875 5490.5625,594.3594 Q5491.2188,594.5156 5491.7656,594.875 Z " fill="#000000"/><text fill="#000000" font-family="sans-serif" font-size="14" lengthAdjust="spacing" textLength="110" x="5503" y="604.7285">IRecoveryService</text><line style="stroke:#181818;stroke-width:0.5;" x1="5475" x2="5615" y1="615" y2="615"/><line style="stroke:#181818;stroke-width:0.5;" x1="5475" x2="5615" y1="623" y2="623"/></g><!--reverse link ICombatService to CombatServiceImpl--><g id="link_ICombatService_CombatServiceImpl"><path d="M2549,407.01 C2549,447.61 2549,514.43 2549,565.16 " fill="none" id="ICombatService-backto-CombatServiceImpl" style="stroke:#181818;stroke-width:1.0;stroke-dasharray:7.0,7.0;"/><polygon fill="none" points="2549,389.01,2543,407.01,2555,407.01,2549,389.01" style="stroke:#181818;stroke-width:1.0;"/></g><!--reverse link IPartyService to PartyServiceImpl--><g id="link_IPartyService_PartyServiceImpl"><path d="M3011,407.01 C3011,443.27 3011,496.79 3011,547.81 " fill="none" id="IPartyService-backto-PartyServiceImpl" style="stroke:#181818;stroke-width:1.0;stroke-dasharray:7.0,7.0;"/><polygon fill="none" points="3011,389.01,3005,407.01,3017,407.01,3011,389.01" style="stroke:#181818;stroke-width:1.0;"/></g><!--reverse link IRecoveryService to RecoveryService--><g id="link_IRecoveryService_RecoveryService"><path d="M3285,407.01 C3285,449.95 3285,524.38 3285,573.61 " fill="none" id="IRecoveryService-backto-RecoveryService" style="stroke:#181818;stroke-width:1.0;stroke-dasharray:7.0,7.0;"/><polygon fill="none" points="3285,389.01,3279,407.01,3291,407.01,3285,389.01" style="stroke:#181818;stroke-width:1.0;"/></g><!--reverse link CombatStrategy to MeleeCombatStrategy--><g id="link_CombatStrategy_MeleeCombatStrategy"><path d="M2574.6551,931.0599 C2602.7651,983.7299 2649.81,1071.85 2677.89,1124.44 " fill="none" id="CombatStrategy-backto-MeleeCombatStrategy" style="stroke:#181818;stroke-width:1.0;stroke-dasharray:7.0,7.0;"/><polygon fill="none" points="2566.18,915.18,2569.3618,933.885,2579.9484,928.2349,2566.18,915.18" style="stroke:#181818;stroke-width:1.0;"/></g><!--reverse link CombatStrategy to SpellCombatStrategy--><g id="link_CombatStrategy_SpellCombatStrategy"><path d="M2512.5765,929.3316 C2471.1765,982.0016 2400.54,1071.85 2359.2,1124.44 " fill="none" id="CombatStrategy-backto-SpellCombatStrategy" style="stroke:#181818;stroke-width:1.0;stroke-dasharray:7.0,7.0;"/><polygon fill="none" points="2523.7,915.18,2507.8593,925.6237,2517.2937,933.0394,2523.7,915.18" style="stroke:#181818;stroke-width:1.0;"/></g><!--link AppConfig to IPartyService--><g id="link_AppConfig_IPartyService"><path codeLine="140" d="M5226.66,391.28 C5378.54,417.79 5584.69,464.72 5634,530 C5689.18,603.06 5680.93,657.39 5634,736 C5588.38,812.42 5492.8307,849.3792 5428.3907,866.8592 " fill="none" id="AppConfig-to-IPartyService" style="stroke:#181818;stroke-width:1.0;"/><polygon fill="#181818" points="5422.6,868.43,5432.3333,869.9343,5427.4256,867.121,5430.2389,862.2133,5422.6,868.43" style="stroke:#181818;stroke-width:1.0;"/><text fill="#000000" font-family="sans-serif" font-size="13" lengthAdjust="spacing" textLength="43" x="5673" y="612.4951">creates</text></g><!--link AppConfig to ICombatService--><g id="link_AppConfig_ICombatService"><path codeLine="141" d="M5122.48,415.73 C5189.91,466.94 5287.272,540.8908 5337.762,579.2408 " fill="none" id="AppConfig-to-ICombatService" style="stroke:#181818;stroke-width:1.0;"/><polygon fill="#181818" points="5342.54,582.87,5337.7924,574.2409,5338.5583,579.8457,5332.9536,580.6116,5342.54,582.87" style="stroke:#181818;stroke-width:1.0;"/><text fill="#000000" font-family="sans-serif" font-size="13" lengthAdjust="spacing" textLength="43" x="5253" y="514.4951">creates</text></g><!--link AppConfig to IRecoveryService--><g id="link_AppConfig_IRecoveryService"><path codeLine="142" d="M5209.29,415.66 C5286.07,443.86 5378.99,482.95 5456,530 C5480.45,544.93 5500.6221,562.3249 5517.7221,578.6649 " fill="none" id="AppConfig-to-IRecoveryService" style="stroke:#181818;stroke-width:1.0;"/><polygon fill="#181818" points="5522.06,582.81,5518.3165,573.7003,5518.445,579.3557,5512.7897,579.4842,5522.06,582.81" style="stroke:#181818;stroke-width:1.0;"/><text fill="#000000" font-family="sans-serif" font-size="13" lengthAdjust="spacing" textLength="43" x="5426" y="514.4951">creates</text></g><!--link CombatController to ICombatService--><g id="link_CombatController_ICombatService"><path codeLine="144" d="M3985.37,406.53 C4060.99,435.5 4168.34,472.64 4266,492 C4498.96,538.17 4562.73,505.96 4799,530 C4983.76,548.8 5194.866,579.1624 5301.366,595.0924 " fill="none" id="CombatController-to-ICombatService" style="stroke:#181818;stroke-width:1.0;"/><polygon fill="#181818" points="5307.3,595.98,5298.9907,590.6926,5302.355,595.2403,5297.8073,598.6046,5307.3,595.98" style="stroke:#181818;stroke-width:1.0;"/><text fill="#000000" font-family="sans-serif" font-size="13" lengthAdjust="spacing" textLength="28" x="4468" y="514.4951">uses</text></g><!--link CombatController to IPartyService--><g id="link_CombatController_IPartyService"><path codeLine="145" d="M3997.9,406.56 C4083.3,437.4 4203.94,480.75 4310,518 C4689.89,651.44 5142.7785,805.5912 5301.7585,859.5612 " fill="none" id="CombatController-to-IPartyService" style="stroke:#181818;stroke-width:1.0;"/><polygon fill="#181818" points="5307.44,861.49,5300.2035,854.8092,5302.7054,859.8827,5297.6319,862.3846,5307.44,861.49" style="stroke:#181818;stroke-width:1.0;"/><text fill="#000000" font-family="sans-serif" font-size="13" lengthAdjust="spacing" textLength="28" x="4928" y="612.4951">uses</text></g><!--link CombatServiceImpl to CombatStrategy--><g id="link_CombatServiceImpl_CombatStrategy"><path codeLine="147" d="M2549,648.58 C2549,703.09 2549,792.87 2549,842.75 " fill="none" id="CombatServiceImpl-to-CombatStrategy" style="stroke:#181818;stroke-width:1.0;"/><polygon fill="#181818" points="2549,848.75,2553,839.75,2549,843.75,2545,839.75,2549,848.75" style="stroke:#181818;stroke-width:1.0;"/><text fill="#000000" font-family="sans-serif" font-size="13" lengthAdjust="spacing" textLength="28" x="2550" y="758.4951">uses</text></g><!--link Party to Hero--><g id="link_Party_Hero"><path codeLine="148" d="M3300.11,950.26 C3297.71,973.74 3295.5303,994.9911 3292.7903,1021.7911 " fill="none" id="Party-to-Hero" style="stroke:#181818;stroke-width:1.0;"/><polygon fill="#181818" points="3292.18,1027.76,3297.0746,1019.2135,3292.6885,1022.7859,3289.1161,1018.3998,3292.18,1027.76" style="stroke:#181818;stroke-width:1.0;"/><text fill="#000000" font-family="sans-serif" font-size="13" lengthAdjust="spacing" textLength="49" x="3298" y="994.4951">contains</text></g><!--link PartyServiceImpl to Party--><g id="link_PartyServiceImpl_Party"><path codeLine="150" d="M3075.67,666.22 C3100.77,688.41 3129.94,713.72 3157,736 C3176.08,751.71 3182.64,753.46 3201,770 C3216.15,783.64 3227.5434,794.7226 3241.9134,809.6126 " fill="none" id="PartyServiceImpl-to-Party" style="stroke:#FF0000;stroke-width:1.0;"/><polygon fill="#FF0000" points="3246.08,813.93,3242.7084,804.6762,3242.6078,810.3322,3236.9519,810.2317,3246.08,813.93" style="stroke:#FF0000;stroke-width:1.0;"/><text fill="#000000" font-family="sans-serif" font-size="13" lengthAdjust="spacing" textLength="66" x="3193" y="758.4951">&#171;singleton&#187;</text></g><!--link RecoveryService to Party--><g id="link_RecoveryService_Party"><path codeLine="152" d="M3287.59,640.12 C3291.01,682.62 3296.6586,752.6093 3301.1086,807.8993 " fill="none" id="RecoveryService-to-Party" style="stroke:#181818;stroke-width:1.0;"/><polygon fill="#181818" points="3301.59,813.88,3304.8551,804.5881,3301.1889,808.8961,3296.8809,805.2299,3301.59,813.88" style="stroke:#181818;stroke-width:1.0;"/><text fill="#000000" font-family="sans-serif" font-size="13" lengthAdjust="spacing" textLength="28" x="3299" y="758.4951">uses</text></g><!--link RecoveryService to IPartyService--><g id="link_RecoveryService_IPartyService"><path codeLine="153" d="M3376.66,640.12 C3465.38,669.86 3604.26,712.87 3728,736 C4338.69,850.17 5088.8616,874.8821 5301.1916,879.7621 " fill="none" id="RecoveryService-to-IPartyService" style="stroke:#181818;stroke-width:1.0;"/><polygon fill="#181818" points="5307.19,879.9,5298.2843,875.6943,5302.1913,879.7851,5298.1005,883.6922,5307.19,879.9" style="stroke:#181818;stroke-width:1.0;"/><text fill="#000000" font-family="sans-serif" font-size="13" lengthAdjust="spacing" textLength="28" x="3860" y="758.4951">uses</text></g><!--link PartyResponse to HeroResponse--><g id="link_PartyResponse_HeroResponse"><path codeLine="155" d="M4759.23,448.54 C4794.7,465.72 4833.37,481.71 4871,492 C5023.17,533.61 5067.43,510.38 5225,518 C5253.53,519.38 5712.29,519.88 5739,530 C5767.49,540.8 5789.2618,560.3414 5805.8618,578.5014 " fill="none" id="PartyResponse-to-HeroResponse" style="stroke:#181818;stroke-width:1.0;"/><polygon fill="#181818" points="5809.91,582.93,5806.7902,573.5883,5806.5365,579.2395,5800.8854,578.9859,5809.91,582.93" style="stroke:#181818;stroke-width:1.0;"/></g><!--link CombatController to PartyMapper--><g id="link_CombatController_PartyMapper"><path codeLine="157" d="M3886,406.71 C3886,453.92 3886,524.76 3886,567.94 " fill="none" id="CombatController-to-PartyMapper" style="stroke:#181818;stroke-width:1.0;"/><polygon fill="#181818" points="3886,573.94,3890,564.94,3886,568.94,3882,564.94,3886,573.94" style="stroke:#181818;stroke-width:1.0;"/><text fill="#000000" font-family="sans-serif" font-size="13" lengthAdjust="spacing" textLength="28" x="3887" y="514.4951">uses</text></g><!--SRC=[lLVDRjiu4BxxAOZquc1jFu0Q60WAOsF0Rekus1uMFT3IL5QN8hKa5TGeykuxf2YQf2GdABRD8PRcVxuP3aSDpV-X9P2RNDH7gbSda0BKAXVyQrNUa1ypWdyveqgH-wPvPycEIiWVfA5IdmyWdweSvhSPsNuC25wgizsBHJ96vrt8zaeISl44yZofzXWBMCNdsVDirepdL8YQLdnLYm9OdDa32lYabgGgCb9nxTzFG9a-nRIQSXfJAjxbaP6Z40mezvcKeBU5GUSYReaFrku8Ou_6KtAbjiw1uQGkb7NX0hyDoSv9a4F4jgvyCX7B-njaTkkm3Y2qnGamx33FoAvI-ixWkxv09oHbC8A6qJ393NGwKAnQ2eloZC1i51_mjYPT0f_E3VWOzvlTPhDmBuUFczrkGkiHLCkqr_kyVTzhxJuSDgzjkrP1JXN4ZHTr_hPk6Adm7zJ0jKhEHNZefCX1ALSTusRR5NxXJfh9CmjoxkbT9bcK5-Bv9Ah26s-RWcgmvNJ0sZEUTHL-hQLXRqmb6JA372Mee2EY20tBQWqus2MUOH-kP8Lm4LgBba_7dGoOAEoKzoETMrtmzxmOXdgjMneXTTyZ62B8hnIj__vMS4048Vn_XUfcnQLORntTY5olrDk9s7vLDTpPLLfYJELvM1XN5ySF_C9to5iDjYIPlM0M1e_N7vezC834VD20lyxneG76VflZQUnfGHk4ULNn8zQ-M9bk6fkUk9DeAHW36GI3pPMSYItMh0Jva-S27nh15MouhlJv3jElUBaU7Jo9gANtj7K8jy-xqEB6nnuDpLulu1ftWyirjj-B3I_QZgwh6h6aTPCH9dWPySOlud7xoijE1tIRMX-xnb-yoWFzJttmniGWV1KA97bUJ3qdM8SH9r37ks0FVxeFEhoJdN1o-xkoirrT3b-nr5tP8L_O-NfOqkwiQTE0d6ZGlMKcc6aHDU_SllLNSayTU9sU1F0zXqPNWiV7_qycZfHjUkO3vKKy14wMiWTz4iMzB5ipmDuB_HTbLJ4V9tjhECuMv47h1g4kG2fJTFFR4G-QwXPltGA8ieyByXcEZ_1lYms7Ky_-3cV1X-CtoFNwQe1c6EqhLLETd-RJh3ZGdtU-nS5PKjQxy6RdKmpqz_8yx6mRfFQudM194Tz7190UyNIFawyxm3vpJXR4ELjV-kRoPRfShfDD9IEv1BohL2eLhrIJOkbgSH6S3UwVKRku-Ai9qIHGApaRVXCOsUJQTSBT9cNuzXCMOqCFkB6WcS7IlVpxZOJY2yfsMXcvkrC890CjEA8vIpDT1gBMsvZ0U0xnvUKDzPHLE70dS0p7IsVsFm00]--></g></svg>